<mxfile host="Electron" agent="Mozilla/5.0 (Windows NT 10.0; Win64; x64) AppleWebKit/537.36 (KHTML, like Gecko) draw.io/24.7.5 Chrome/126.0.6478.183 Electron/31.3.0 Safari/537.36" version="24.7.5">
  <diagram name="Pagina-1" id="f_GFoHM6E5S1mRud_ntS">
    <mxGraphModel dx="523" dy="399" grid="1" gridSize="10" guides="1" tooltips="1" connect="1" arrows="1" fold="1" page="1" pageScale="1" pageWidth="827" pageHeight="1169" math="0" shadow="0">
      <root>
        <mxCell id="0" />
        <mxCell id="1" parent="0" />
        <mxCell id="CtstYYITDIyHxA0FwCKV-22" value="" style="rounded=1;whiteSpace=wrap;html=1;arcSize=5;fillColor=#ffe6cc;strokeColor=#d79b00;" vertex="1" parent="1">
          <mxGeometry x="416" y="340" width="110" height="130" as="geometry" />
        </mxCell>
        <mxCell id="CtstYYITDIyHxA0FwCKV-21" value="" style="rounded=1;whiteSpace=wrap;html=1;arcSize=5;fillColor=#d5e8d4;strokeColor=#82b366;" vertex="1" parent="1">
          <mxGeometry x="40" y="340" width="190" height="210" as="geometry" />
        </mxCell>
        <mxCell id="CtstYYITDIyHxA0FwCKV-1" value="" style="verticalLabelPosition=bottom;sketch=0;aspect=fixed;html=1;verticalAlign=top;strokeColor=none;align=center;outlineConnect=0;shape=mxgraph.citrix.xenapp_services;shadow=1;" vertex="1" parent="1">
          <mxGeometry x="510" y="319.99999999999994" width="46" height="54.47" as="geometry" />
        </mxCell>
        <mxCell id="CtstYYITDIyHxA0FwCKV-3" value="" style="verticalLabelPosition=bottom;sketch=0;aspect=fixed;html=1;verticalAlign=top;strokeColor=none;align=center;outlineConnect=0;shape=mxgraph.citrix.laptop_2;shadow=1;" vertex="1" parent="1">
          <mxGeometry x="10" y="320" width="56" height="41.76" as="geometry" />
        </mxCell>
        <mxCell id="CtstYYITDIyHxA0FwCKV-7" style="edgeStyle=orthogonalEdgeStyle;rounded=0;orthogonalLoop=1;jettySize=auto;html=1;shadow=1;startArrow=classic;startFill=1;fillColor=#dae8fc;strokeColor=#6c8ebf;strokeWidth=2;exitX=0.5;exitY=1;exitDx=0;exitDy=0;entryX=0.484;entryY=0.007;entryDx=0;entryDy=0;entryPerimeter=0;" edge="1" parent="1" source="CtstYYITDIyHxA0FwCKV-23" target="CtstYYITDIyHxA0FwCKV-5">
          <mxGeometry relative="1" as="geometry">
            <mxPoint x="500" y="479.21" as="sourcePoint" />
          </mxGeometry>
        </mxCell>
        <mxCell id="CtstYYITDIyHxA0FwCKV-20" style="edgeStyle=orthogonalEdgeStyle;rounded=0;orthogonalLoop=1;jettySize=auto;html=1;entryX=0.25;entryY=1;entryDx=0;entryDy=0;shadow=1;strokeColor=#82b366;strokeWidth=2;align=center;verticalAlign=middle;fontFamily=Helvetica;fontSize=11;fontColor=default;labelBackgroundColor=default;startArrow=classic;startFill=1;endArrow=classic;fillColor=#d5e8d4;exitX=0.481;exitY=-0.043;exitDx=0;exitDy=0;exitPerimeter=0;" edge="1" parent="1" source="CtstYYITDIyHxA0FwCKV-25" target="CtstYYITDIyHxA0FwCKV-18">
          <mxGeometry relative="1" as="geometry">
            <Array as="points">
              <mxPoint x="90" y="470" />
              <mxPoint x="90" y="460" />
              <mxPoint x="125" y="460" />
            </Array>
          </mxGeometry>
        </mxCell>
        <mxCell id="CtstYYITDIyHxA0FwCKV-5" value="" style="image;sketch=0;aspect=fixed;html=1;points=[];align=center;fontSize=12;image=img/lib/mscae/CosmosDB.svg;shadow=1;" vertex="1" parent="1">
          <mxGeometry x="447" y="499" width="50" height="50" as="geometry" />
        </mxCell>
        <mxCell id="CtstYYITDIyHxA0FwCKV-10" style="edgeStyle=orthogonalEdgeStyle;rounded=0;orthogonalLoop=1;jettySize=auto;html=1;startArrow=classic;startFill=1;dashed=1;strokeWidth=3;fillColor=#fff2cc;strokeColor=#d6b656;shadow=1;exitX=1;exitY=0.5;exitDx=0;exitDy=0;entryX=0;entryY=0.5;entryDx=0;entryDy=0;" edge="1" parent="1" source="CtstYYITDIyHxA0FwCKV-16" target="CtstYYITDIyHxA0FwCKV-23">
          <mxGeometry relative="1" as="geometry" />
        </mxCell>
        <mxCell id="CtstYYITDIyHxA0FwCKV-9" value="" style="sketch=0;aspect=fixed;pointerEvents=1;shadow=1;dashed=0;html=1;strokeColor=none;labelPosition=center;verticalLabelPosition=bottom;verticalAlign=top;align=center;fillColor=#00188D;shape=mxgraph.azure.message2;" vertex="1" parent="1">
          <mxGeometry x="160" y="496.5" width="50" height="37" as="geometry" />
        </mxCell>
        <mxCell id="CtstYYITDIyHxA0FwCKV-14" style="edgeStyle=orthogonalEdgeStyle;rounded=0;orthogonalLoop=1;jettySize=auto;html=1;startArrow=classic;startFill=1;dashed=1;strokeWidth=3;fillColor=#fff2cc;strokeColor=#d6b656;shadow=1;exitX=1;exitY=0.5;exitDx=0;exitDy=0;" edge="1" parent="1" source="CtstYYITDIyHxA0FwCKV-18">
          <mxGeometry relative="1" as="geometry">
            <mxPoint x="290" y="410" as="targetPoint" />
            <Array as="points">
              <mxPoint x="250" y="385" />
              <mxPoint x="250" y="410" />
              <mxPoint x="290" y="410" />
            </Array>
          </mxGeometry>
        </mxCell>
        <mxCell id="CtstYYITDIyHxA0FwCKV-16" value="" style="shape=image;verticalLabelPosition=bottom;labelBackgroundColor=default;verticalAlign=top;aspect=fixed;imageAspect=0;image=data:image/png,iVBORw0KGgoAAAANSUhEUgAAAgAAAAIACAYAAAD0eNT6AAAABHNCSVQICAgIfAhkiAAAAAlwSFlzAAAN1wAADdcBQiibeAAAABl0RVh0U29mdHdhcmUAd3d3Lmlua3NjYXBlLm9yZ5vuPBoAACAASURBVHic7N17nJx1ff/99zUze8hmk90kbBKSsAS6HhIJRAEhlkKQSlhQq0aIVusBUe/b1pbqXbtq7xvpz+r601/Rtra/2wo81GIJGI/IBtCKIAQVNFbluEBYct6cN4c9zMz1+2Pmk0x2Z2Zn5vp+r+/hej8fDx6VkL3m0oZ9vfeawxWEYQgiIiLbrdswtATAtQBWFv+aA+A3ADYDuHv92u57DZ6ecwIOACIist26DUPXAvhHAB1Vfts3APzV+rXd++M5K7dxABARkbXWbRhqA7AewOtr/JIdAN60fm33L/SdlR84AIiIyErF+P8AwGvr/NKDANasX9v9c/Vn5Y+U6RMgIiKaLEL8gcLTBPes2zB0gdqz8gsHABERWSVi/AVHwDQ4AIiIyBrF+N+FaPEXHAFVcAAQEZEVSuJ/qcLDcgRUwAFARETGaYq/4AgogwOAiIiM0hx/wREwCQcAEREZE1P8BUdACQ4AIiIyIub4C46AIg4AIiKKnaH4C44AcAAQEVHMDMdfJH4EcAAQEVFsLIm/SPQI4AAgIqJYWBZ/kdgRwAFARETaWRp/kcgRwAFARERaWR5/kbgRwAFARETaOBJ/kagRwAFARERaOBZ/kZgRwAFARETKORp/kYgRwAFARERKOR5/4f0I4AAgIiJlPIm/8HoEcAAQEZESnsVfeDsCOACIiCgyT+MvvBwBHABERBSJ5/EX3o0ADgAiImpYQuIvvBoBHABERNSQhMVfeDMCOACIiKhuCY2/8GIEcAAQEVFdEh5/4fwI4AAgIqKaMf4ncXoEcAAQEVFNGP+yOgDc85Y7tlxk+kTqxQFARETTYvwrOzo+0fHszv0/vfirj19r+lzqwQFARERVMf6VHR3PYsvug5jI5VP7j4x+1aURwAFAREQVMf6VFeJ/ALl8CADI5cPApRHAAUBERGUV4/9DMP5TTI6/cGkEcAAQEdEUJfFfbfhUrFMp/sKVEcABQEREJ7n4q4/Pz4fhABj/KaaLv3BhBARhWP2/BBERJcfFX318/uGxiaebUqmO07tmIwgC06dkjVrjXyqdCsI5M1uve+C65bdoPLWG8AoAEREBOBH/0fFsx8joOF4YPgT+kFjQSPwBu68EcAAQEdFJ8Zdf4wgoaDT+wtYRwAFARJRw5eIvkj4CjkWMv7BxBHAAEBElWLX4i6SOgGPjWTyvIP7CthHAAUBElFC1xF8kbQSojr+QEXDlbYNrlB64ARwAREQJVE/8RVJGgK74iwWdM4NZrc3rTd9FkAOAiChhGom/8H0E6I7/orntmNc+A7DgVsIcAERECRIl/sLXERBj/IXREcAPAiIl9h8YWQPgIgArAbwcwAsANgN4FMC35nTOyho8PSKCmviXmtXaDF8+LMhA/EsdBLBm/drun2t58Ao4ACiS/QdGFgL4NwBvqvLbHgXw3jmds34Xz1kR0WSq4y98GAGG4y9iHwF8CoAatv/AyJUAfo/q8QeA8wA8tv/AyF/qPysimmzdhqG2bD58THX8AfefDrAk/oCBpwM4AKgh+w+MvBHAdwDMrfFLmgF8af+BkT59Z0VEk8ld/RbPbV8ys6VJy2O4OgIsir+IdQRwAFDdivG/E4Wo1+uzHAFE8Si9pW8qCLB0fgc4AgosjL+IbQRwAFBdIsZfcAQQaVYaf/k1joACi+MvYhkBHABUM0XxFxwBRJqUi79I+ghwIP5C+wjgAKCaKI6/4AggUqxa/EVSR4BD8RdaRwAHAE1LU/wFRwCRIrXEXyRtBDgYf6FtBHAAUFWa4y84Aogiqif+IikjwOH4Cy0jgAOAKirG/1vQG3/BEUDUoEbiL3wfAR7EXygfARwAVFZJ/PV8VyiPI4CoTlHiL3wdAR7FXygdARwANIWh+AuOAKIaqYi/8G0EeBh/oWwEcADQSQzHX3x2/4GRjxt8fCLrqYy/8GUEeBx/oWQEcADQcZbEX3yGI4CoPB3xF66PgATEX0QeARwABMC6+AuOAKJJdMZfuDoCEhR/EWkEcAAQ9h8Y+RPYF3/BEUBUFEf8hWsjIIHxFw2PAA6AhCvG/07YGX/BEUCJV4z/3Ygh/sKVEZDg+IuGRgAHQII5En/BEUCJtW7D0EwU4n9J3I9t+whg/I+rewRwACSUY/EXHAGUOMX4/xAG4i9sHQGM/xR1jQAOgARyNP6CI4ASw4b4C9tGAONfUc0jgAMgYRyPv+AIIO/ZFH9hywhg/KdV0wjgAEgQT+IvOALIWzbGX5geAYx/zaYdARwACeFZ/AVHAHnH5vgLUyOA8a9b1RHAAZAAnsZfcASQN1yIv4h7BDD+Das4AgLT92kmvTyPf6lPzumc9RnTJ0HUKJfiXyofhtiy+yCOjE1oOf6s1mbM72jDluGDjH80BwGsWb+2++fyCxwAHktQ/PHs89uxZ9/Be6+47NVrTJ8LUb1cjb/QPQJ0Skj8xR4AZ61f270L4FMA3kpa/H/1389gaOvuywd+9It7TJ8PUT1cjz+g/+kAXRIWfwA4BcC/yd9wAHgoifEXL27jCCB3+BB/4doISGD8xZvXbRh6G8AB4J0kx18UR8C9Bk6JqGY+xV+4MgISHH/xdoADwCv7D4y8CQmPv3hx2+7XDfzo5xwBZCUf4y9sHwGMPwDglQBfBOiNYvzvAON/ktMWd93X+8cXXK75lIhq5nP8S9n4wkDG/yTzOAA8wPhXd9rirh/1/vEFr9N0SkQ1u+TmJ+YfHh1/qmt2W2dHW4vp09HOphHA+J8kBNDJpwAcx/hP78Vtw398930/v0/DKRHVrBj/p4+NZztf3HMIB4+OmT4l7Wx5OoDxn+LZ9Wu7D3EAOIzxr93W7RwBZM7qW47HvwMo/PjFERAPxr+szQBfBOgsxr9+xRHwIwWnRFSz1bc8MX/k2In4C44A/Rj/iv4d4ABwEuPfuK3bhy+7+75HOAIoFpXiLzgC9GH8K7p5/druewEOAOcw/tFt3b7nsnt+/MuNyg9MVKIY/6cqxV8kcQS0NWe0Ps6iOYx/BS8C+Ij8DQeAQxh/NZqbM3hpz5I1+w+MfFLLA1DilcS/s5bfn6QRMDaRw1g2p/UxDo+Og29wm2IngMvXr+0+JL/AAeAIxl+N5uYMLnnNOejsaAeAT3MEkGqX3vJkVz3xF0kYAbpv6SsOHRvH0J6DHAEn7ARw6fq13U+W/iIHgAMYfzUmxV9wBJAyl97yZNehY2NP1xt/4fMIiCv+giPguLLxBzgArMf4q1Eh/oIjgCKLGn/h4wiIO/6CI6By/AEOAKsx/mpME3/BEUANUxV/4dMIMBV/keARUDX+AAeAtRh/NWqMv+AIoLqt2zA08/Do+BOq4i98GAGm4y8SOAKmjT/AAWAlxl+NOuMvOAKoZnJjn/kdM+elgkD58V0eAbbEXxw6No4XkjECaoo/wAFgnf0HRt4Mxj+yBuMvOAJoWqV39WtvbcLpXR3gCCiwLf5ixP8RUHP8AQ4AqxTjvx6MfyQR4y84AqiiYvzvRsktfTkCCmyNv/B4BNQVf4ADwBqMvxqK4i84AmiKkvhfPPmfJX0E2B5/4eEIqDv+AAeAFRh/NRTHX3AE0HHV4i+SOgJcib/waAQ0FH+AA8A4xl8NTfEXn95/YOTvdByY3FFL/EXSRoDu+Lc0pbUc14MR0HD8AQ4Aoxh/NTTHX/wPjoDkqif+IikjQHf8F81tR8/COZjZqufbpMMjIFL8AQ4AYxh/NWKKv+AISKBG4i98HwFxxH9e+4zCXQS7OjgCTogcf4ADwAjGX42Y4y84AhIkSvyFryMgrvgLjoDjlMQf4ACIHeOvhqH4C46ABFARf+HbCIg7/oIjQF38AQ6AWDH+ahiOv+AI8JjK+AtfRoCp+IsEjwCl8Qc4AGLD+KthSfwFR4CHdMRfuD4CTMdfxDcCrFkByuMPcADEgvFXw7L4C44Aj+iMv3B1BNgSfxHPCDhkwwjQEn+AA0A7xl8NS+MvOAI8EEf8hWsjwLb4iwSMAG3xBzgAtGL81bA8/oIjwGFxxl+4MgJsjb/weARojT/AAaAN46+GI/EXHAEOMhF/YfsIsD3+wsMRoD3+AAeAFvsPjLwFjH9kjsVfcAQ4xGT8ha0jwJX4C49GQCzxBzgAlCvG/3Yw/pE4Gn8AQC6X/x8PbvrvO0yfB1VnQ/yFbSPAtfgLD0ZAbPEHOACUYvzVcDz++Nkjv8UTTw9dvfHHv7jX9PlQeTbFX9gyAlyNv3B4BMQaf4ADQBnGXw0f4r97zwEAwNDW3a/jCLCPjfEXpkeA6/EXx0dAizMjIPb4AxwASjD+avgUf8ERYBeb4y9MjQBf4i9SQYCl850YAUbiD3AARMb4q+Fj/AVHgB1ciL+IewT4Fn/hwAgwFn8ACCz4lCNnMf5q+Bz/Ut1L5t93xWWvvjyG06JJXIp/qcOjE3hh+CDyGr5PBwBOO2U2mjNpL+NfKh+G2LL7II6MTWg5/qwZzTj9lNkI6htsRuMPcAA0rOStfhnT56Ib419ePfEXHAHxczX+QvcISKUCr+MvtI+A1mac3lXzCDAef4ADoCGMvxpJi7/gCIiP6/EXOkeALjbFX1gyAqyIP8DXANSN8VcjqfEH+JqAuPgSf0DvawJ0sDH+QAyvCRgdxwvDVV8TYE38AQ6Auuzave8vwfhHluT4C44AvXyKv3BlBNgaf2FwBFgVf4ADoGbbduz57JGjY186NjrO+EfA+J/AEaCHj/EXto8A2+MvDIwA6+IPcADUZNuOPZ8dG5voA4DR0XEcGx03fUra6I1/E+M/CUeAWj7HX9g6AlyJv4hxBOyChfEHOACmVRp/4esI0B//sxn/MkZHx1+3Z9/BT2k5eIJcesuTXUN7Dj2Tzee9jb+wbQS4Fn+hewQcm8jmhw8d+zMb4w9wAFS1bcee/snxF76NAMa/PN3xn39KJy66cAXSqdQN+w+M/H9aHiQBLr3lya5Dx8aePnh07NTndx1ENp83fUra2TICXI2/0DUCMulUfs7M1jf85NqX36f0wApxAFRQjP/fVvs9vowAxr+82OKfPv6v4Y0cAfWT+B8bz3YCwOhEFhwB8XA9/kL1CJD4//R9y+5WckBNOADKqCX+wvURwPiXZyD+giOgDpPjLzgC9PMl/kLVCHAl/gAHwBT1xF+4OgIY//IMxl9wBNSgUvwFR4A+vsVfRB0BLsUf4AA4ybYdez5Xb/yFayOA8S/PgvgLjoAqpou/4AhQz9f4i0ZHgGvxBzgAjivG/2NRjuHKCGD8y7Mo/oIjoIxa4y+SNAJSKRQ+4F+jdOB/NuodAS7GH+AAAKAm/sL2EcD4l2dh/AVHQIl64y+SMAKOjk9gy+6DyGu6sY/YuvcQDhwZm/43Oq7WEeBq/AEOAKXxF7aOAMa/PIvjLzgC0Hj8hc8jQOKv665+pUJwBAiX4w8kfABs27Hnf6qOv7BtBDD+5TkQf5HoERA1/sLHERBn/AVHgPvxBxI8AIrx/xudj2HLCGD8y3Mo/iKRI0BV/IVPI8BE/EWSR4AP8QeAoMptC70VR/xLtbY2Y0Zrc1wPdxLGvzwH41/qhjmds/5ex4Ft89pbnzzl4NGxZ1TFv1RrUwZnLOhAJuXmz0Em418qALBk3mx0zmwxeh5xyIchXtxzaLSlKbPW9fgDCRwAccdfmBgBjH95jsdffGpO56wbdT6Aaes2DM0MgY1b9x66SNdPma6OAFviLwIAS06Zjc4270eAlXf1a5Rbf+ojMhV/IP6nAxj/8jyJPwB8av+BkRt0P4gpxbv6DQTARTp/unTx6QDb4g8Unw7YcwgHjnr9dIBX8QcSNABMxl/ENQIY//I8ir/wcgSs2zDUDmAAwB8B+i8xuzQCbIy/8HwEeBd/ICEDwIb4C90jgPEvz8P4C69GQDH+d6MYf8ERYHf8hacjwMv4AwkYANt27Pm8LfEXukYA41+ex/EXXoyASvEXSR4BLsRfeDYCvI0/4PkAKMb//zF9HuWoHgGMf3kJiL9wegRMF3+RxBGgO/6BhnsHeDICvI4/4PEA2LZ9zxdsjb9QNQIY//ISFH/h5AioNf4iSSNAd/wXzW3HUk03EHJ8BHgff8DTAbBt+54vjI1PfNT0edQi6ghg/MtLYPyFUyOg3viLJIyAOOI/r32G1rsIOjoCEhF/wMMB4FL8RaMjgPEvL8HxF06MgEbjL3weAXHFX3AEHJeY+AOeDQAX4y/qHQGMf3mM/3FWj4Co8Rc+joC44y84ApIVf8CjAeBy/EWtI4DxL4/xn8LKEaAq/sKnEWAq/iKOEXDQzhGQuPgDngyAbTv2fNb1+IvpRgDjXx7jX9Gn9h8Y+aTpkxCq4y98GAGm4y90j4AX7RsBiYw/4MG9ALbv3Hv22NjE5jAM1f9pNajcvQMY//IY/2nlAVw0p3PWJpMnoSv+pXTfoU7XvQNsiX+pw6MTeGH4IPIaGhEAOO2U2egwf++AxMYf8OAKQDabG/At/sDUKwGMf3mMf01SAG7ef2DE2HfbOOIPuHklwMb4A4m4EpDo+AOOD4BtO/Z8LJvNLTJ9HrrICHjm2W2MfxmMf12WAfiwiQeOK/7CpRFga/yFxyMg8fEHHB8AYT58o+lz0O3Bh/8bD2z6DXQ8VcP4V+ZZ/MXquB8w7vgLF0aA7fEXHo4Axr/I6e9u+TB8melz0OmXv3oSW17ciVwuj5HDR5WOAMa/Mk/jDwDnxvlgpuIvbB4BrsRfeDQCGP8STn+Hy+fzc0yfgy6//HUh/kLlCGD8K/M4/gCwcP+BkblxPJDp+AsbR4Br8RcejADGfxKnv8sFQXDY9Dno8MtfP4ktQzun/LqKEdDc3ITVf3gO41+G5/EHgIMA9ut+EFviL2waAa7GXzg8Ahj/Mpz+TpdKpZ41fQ6qVYq/iDICJP4ds2dGOUUjGH8lfjWnc5bW9/3aFn9hwwhwPf7CwRHA+Ffg9He7VBA8YPocVJou/qKREcD4V5aQ+APAIzoPbmv8hckR4Ev8hUMjgPGvwukPAtq+c2/zxER2Xy6Xd69qkzz666fw/NCOur4mnU5hVnvbtPfzbmluwiWMf1kJiv8uAK+Y0zlrr46DF+M/AOAiHcdXKe4PC/It/qUs/7Agxn8aTn/XW7Rw3nhTJv120+cRVSPxB2q7EsD4V5ag+APAnzP+BXFeCfA5/oDVVwIY/xo4fQVAbN0+vGF8PPsW0+fRiEbjX6rSlQDGv7KExf/WOZ2zrtVxYNfiX0r3lYCWpjSyuby38S9l2ZUAxr9GXnz3W7Koa21zc+Ye0+dRLxXxB8pfCWD8K0tY/G8D8H4dB3Y5/oD+KwFjE7lExB+w6koA418Hb74DLlnUdYVLI0BV/EXpCGD8K0tg/N89p3NWTvWBXY+/0D0CdLAt/sKCEcD418mr74KujIBHN6uNv8jl8jh6bJTxr4DxV8OX+AuXRoCt8RcGRwDj3wDvvhPaPgIe3fwUnn9BffwBIBUEOH/lMjQ3N2k5vk6Mv1KMf51cGAG2x18YGAGMf4O8/G5o6wjQHf9V55+FRafOm3IrYdsx/kox/g2yeQS4En8R4whg/CPw4l0AlWzdPrxxfDy7xvR5APHFv1RrazNmtDZreUxVGH+lGH8FdL87oF6uxb+UzncHNKVTuaXzO8793tvO/I3ygyeE198VbbkS8OjmJ2OPPwDrrwQw/kox/orYdCXA5fgD+q4EZNKpfOfM1jcy/tF4/53R9AgoxH/6j/dtRLX4C1tHAOOvFOOvmA0jwPX4C9UjIJNO5efMbH39T9+37G4lB0ywRHx3NDUCTMdf2DYCGH+lGH9NTI4AX+IvVI2AkvgPKDq1REvEd0gg/hGgO/4XvvoVNcVf2DICGH+lGH/NTIwA3+Ivoo4Axl+9RHyXFHGNgEd//ZT2+C9eeErdX2t6BDD+SjH+MYlzBPgaf9HoCCjG/yrGX61EfKcspXsEqP6Ev1JR4i9MjQDGXylt8S+6A4z/SQJAe5ib0qkod75zRr0joCT+GzWfWuIk4rvlZLpGgO3xF3GPAMZfKa3xX7dh6N0AenUc22VHxyewZfig1seYyOWP30XQd7WOgEw6lZ87s/VKxl8Prz8HYDoqPydAZ/yDIMAqRfEvFcfnBDD+SumO/wIAjwOYq+P4rtJ9S9/JWpsyOGNBBzIp//9MV/ucgEw6lZs7s/Wq+9+3zPhbuX3l/5+wKlRdCXAx/oD+KwGMv1K6L/sDwNvB+J8k7vgDwOhENvFXAhj/eCTiO2c1UUfAY5pu7APojb/QNQIYf6XiiD8ArNR8fKeYiL9I8gjIpFO5ue2tVzL++iXiu+d0Gh0Bj21+Cs9p+oS/IAiw6ny98ReqRwDjr1Rc8Qc4AI4zGX+RxBHQnEln57a3Xnn/tcvuNX1OSZCI76C1qHcExBL/U/XHX6gaAYy/UnHGHwBmx/Q4VrMh/iJhI2DnHyzoXMn4xycR30VrVesI8C3+IuoIYPyVijv+ALA5xseykk3xFwkZATsBXLrhmqW/N30iSZKI76T1mG4E+Bp/0egIYPyVMhF/IOEDwMb4C89HAG/pa0givpvWq9II8D3+ot4RwPgrZSr+AHAXAC8LMx2b4y88HQGMv0GJ+I7aiMkjICnxF7WOAMZfKZPxx/q13b8C8EUTj22SC/EXno0Axt+wRHxXbZSMgKTFX0w3Ahh/pYzGv8T/C+A5w+cQG5fiLzwZAYy/BRLxnTWKJYu6rjg6OrZHx7Ftjr+oNAIYf6VsiT/Wr+0+CuBNAIZNn4tuuuO/aE67thsIOT4CGH9LJOK7a1TvftuaroUL5iodAUHK/viLySOA8VfKmviL9Wu7fwvgMng8ArTHf2475s2aofUugo6OAMbfIom+F0C9vnb7PcM7d+2LXOwgFWDVeW7Ev1RrazOamzKMvzrWxb/Uug1DKwD8GECX6XNRKZb4l9w5MASwde8hHDgypuXxHLp3AONvGQ6AOkUdAa7GHwDGJ7L46UOFd4oFdd7PuxaMv318GwFxx19wBDD+NuIAaECjI8D1+N/7X7/EsdExZNJptLfPUDoCGH97+TICTMVfJHgEMP6Wsu5PigsaeU1AkAqw6tzlzscfALK5HA4fPgZV4zFJ8c/mcnfAofgDJa8JyOcPmj6XRpmOPwAEQBJfE8D4W8z/77ia1DMCjsd/kXs/QE2Ov1A1ApIU/8ef3IKb/vXO0z/3pf+cafpc6hXedevi8Gc/mIHxUdOnUjcb4i8SNgIYf8v5/11Xo1pGgI/xF1FHQNLif9e9jyCfDy8AcE/fjV9x5sY717z3xisAfBeH9jWHmzbCpRFgU/xFQkYA4+8A/7/zalZtBPgcf9HoCEhi/Ev+N7oQjoyA4/EHCrUa2Q9XRoCN8ReejwDG3xH+f/eNQbkRkIT4i3pHQMLjL6wfAVPiLxwYATbHX3g6Ahh/h/j/HTgmpSMgSfEXtY4Axv8k1o6AivEXFo8AF+IvPBsBjL9j+DZAxf7jjh/t6l4yf/6SBMW/VLW3CDL+FT0CYE3/DR84pPm0ajJt/EvNmoNg1RVAc6v286qFS/Ev5cFbBBl/B3EAaLB1+/DG8fHsGtPnUQ8V8RflRgDjPy0rRkBd8ReWjABX4y8cHgGMv6P8/25swORbCdtOZfyBqU8HMP41Mf50QEPxB6x4OsD1+APOPh3A+DvM/+/IhrgyAlTHX8gIOGXubMa/dsZGQMPxFwZHgA/xF46NAMbfcf5/VzbI9hGgK/6iqSmDV57zUsa/PrGPgMjxFwZGgE/xF46MAMbfA/5/ZzbM1hGgO/4zWltw+WvPR5gPT7qVsI8Uxl/ENgKUxV/EOAJ8jL+wfAQw/p7gAIiBbSMgrvg3N2UAAKOj496OAA3xF9pHgPL4i5H9CB/ZmEM+p+0FjT7HX1g6Ahh/j3AAxMSWERB3/IWPI0Bj/IW2EaAt/gVZHNr/NqTSFwEYVn3wJMRfWDYCGH/PcADEyPQIMBV/4dMIiCH+QvkI0B5/4O133HrDt47fRVDhCEhS/IUlI4Dx9xAHQMxMjQDT8Rc+jIAY4y+UjYC44i+/oHIEJDH+wvAIYPw9xQFgQNwjwJb4C5dHgIH4i8gjIO74CxUjIMnxF4ZGAOPvMQ4AQ+IaAbbFX7g4AgzGXzQ8AkzFX0QZAYz/CTGPAMbfcxwABukeAbbGX7g0AiyIv6h7BJiOv2hkBDD+U8UxAl7cMzIGxt97HACG6RoBtsdfuDACLIq/qHkE2BJ/Uc8IYPwr0zkCmtKpXFtL5o2Mv/84ACygegS4En9h8wiwMP5i2hFgW/xFLSOA8Z+ejhHQlE7l5rS3Xnn/tcvuVXZQshYHgCVUjQDX4i9sHAEWx19UHAG2xl9UGwGMf+1UjgDGP3k4ACwSdQS4Gn9h0whwIP5iygiwPf6i3Ahg/OunYgQw/skUOPANLnG2bh/eOD6eXVPP17ge/1Ktrc2Y0dqs/XEqcSj+pR4BsOa5LTteAwfiX2rdhqEVAH58dHyii/FvXAhg695DOHCkvu8BjH9ycQBYqp4R4FP8hakR4Gj8AQD5fP73Q1t39+TzoTPxF2vv3LLy2Z0HHh3P5tI6ju97/EW9I4DxTzY+BWCpWp8O8DH+gJmnA1yOPwCkUqlXnLpgXksqFag+tNb4A8CGq5dunt3WfE06lVJyo/pSSYk/UN/TAYw/cQBYbLoR4Gv8RZwjwPX4i5aWJpy6YB4UjgDt8RcPvG/5t+e0t1ytcgQkKf6ilhHA+BPAAWC9SiPA9/iLOEaAL/EXCkdAbPEXKkdAEuMvqo0Axp8EB4ADJo+ApMRf6BwBvsVftLQ0YeGCuVFGQOzxFypGQJLjL8qNAMafSvFFgA7Zun144+Ejo2uSFP9Sql8Y6Gv8S42OjWPnrn3I1/fKemPxL3XxzY+/Zf/hsTtz+XxdP6gw/ieTFwYeGZ1g/OkkvALgkCWLuq74/ZPPDyUx/oDaKwFJiD8AtLY013slAw4FWAAAIABJREFUwIr4A41dCWD8pypeCdjZNbvtMsafSvEKgIO+dvu9wzt37T1F5TFtj3+pqFcCkhL/UjVeCbAm/qVqvRLA+FfEu/pRWbwC4KB3v+3yroUL5u1RdTyX4g9EuxKQxPgDNV0JsDL+QG1XAhj/ihh/qogDwFGqRoBr8ReNjICkxl9UGQHWxl9UGwGMf0WMP1XFAeCwqCPA1fiLekZA0uMvyowA6+Mvyo0Axr8ixp+mxdcAeKCR1wS4Hv9S070mgPGfqviagGw+HzoR/1IX3/z4Ww4cHrtzfmdbivEvi/GnmvAKgAfqvRLgU/yB6lcCcrn8+h/e98hDjP/JWlua0b1k/jNnLj3VuVeFP/C+5d8+7ZRZfzSvfcaUWwkT40+14wDwRK0jwLf4iwoj4LZ0OvWOfD68AsDPDJyW1VKp1DIAG0tvJeyKH76j52FMupUwMf5UHw4Aj0w3AnyNv5g0Am4D8O45nbNy/Td84DCAXnAElLMKjo6A9Wu7fwuOAMH4U934GgAPlXtNgO/xLzVjRsvPWluaVs/pnJUr/fW+G7/SDmAAwEVmzsxqmwCs6b/hAyOmT6Re6zYMrQDwYwBdps/FEMafGsIrAB6afCUgSfHPZNJbwjC8bHL8AYBXAqpaBeCevhu/Msv0idQr4VcCGH9qGK8AeOxrt987fPDg4VOSFP9MJv2yRQvnVX1vIK8EVMUrAe5g/CkSDgDPbXlx1735XP51ps9Dt1rjLzgCquIIsB/jT5FxACTA1u3DG8fHs2tMn4cu9cZfcARUxRFgL8aflOBrABJgyaKuK5qbM/eYPg8dGo0/wNcETIOvCbAT40/KcAAkhI8jIEr8BUdAVRwBdmH8SSkOgATxaQSoiL/gCKiKI8AOjD8pxwGQMD6MAJXxFxwBVbk/AsJwn+lziYDxJy04ABLI5RGgI/6CI6AqZ0dAeNetE+HPfpDH+KjpU2kE40/acAAklIsjQGf8BUdAVc6NgGvee+PLAfwEB/eeEm7aCMdGAONPWnEAJJhLIyCO+AuOgKqcGQHH4w8sBACM7IdDI4DxJ+04ABLOhREQZ/wFR0BV1o+AKfEXbowAxp9iwQFAVo8AE/EXHAFVWTsCKsZf2D0CGH+KDQcAAbBzBJiMv+AIqMq6ETBt/IWdI4Dxp1hxANBxNo0AG+IvOAKqsmYE1Bx/YdcIYPwpdhwAdBIbRoBN8RccAVUZHwF1x1/YMQIYfzKCA4CmMDkCbIy/4AioytgIaDj+wuwIYPzJGA4AKsvECLA5/oIjoKrYR0Dk+AszI4DxJ6M4AKiiOEeAC/EXHAFVxTYClMVfxDsCGH8yjgOAqopjBLgUfyEjIJ/P/7fpc7GQ9hGgPP5CRkAue1TpcU/G+JMVOABoWjpHgIvxF89t2XHR0NbdLxsdde7U46BtBGiLvxjZfyPSmQuh5y6CjD9ZgwOAaqJjBLgc/2vee+MVAL6bz4ctO3fvA0dAWasAbFQ5ArTHH7jxjltv+JSmWwkz/mQVDgCqmcoR4EP8AbQAQD4fgiOgotdA0QiIK/7yN4pHAONP1uEAoLqoGAE+xV9wBFQVeQTEHX+haAQw/mQlDgCqW5QR4GP8BUdAVQ2PAFPxFxFHAONP1uIAoIYUR8Bd9XxNUyb9jK/xFxwBVdU9AkzHX5SMgG11HPsFMP5kMQ4AatiSRV1vaGlpujaVSo1V+31BEORbmps+f9qS+S/1Of6CI6CqmkeALfEXxRGwHMBXAIRVfmsI4MsAzmL8yWZBGFb7c0w0ve0797bn8/mv5/PhBfl8fn4+H2aCIMin06l9qSB4PJVOXbto4bxnTZ9nI+qNf6lUKsDC+XPR2tqs/sTc9zCAK/pv+MBIuX9oW/wnW7dh6GIA7wDwKgArir/8WwCPAfj6+rXdD0c+QyLNOABIue07985ftHDebtPnEVWU+AuOgKrKjgDb4z/Zug1DTQCwfm33hKpjEsWBA4CoDBXxFxwBVZ00AlyLP5HLOACIJlEZf8ERUNXDAK54bsuOxWD8iWLDFwESldARf+D4CwOzuXz+dyqP64nXhGH4k1QquB+MP1FsOACIinTFvyibz4dvT6dSq8C7CE4RBMG5CxfMXZBKBToOz/gTlcEBQAT98Qfw9jtuveFbvJVwZa0tzVi4YC4UjwDGn6gCDgBKvLjiL7/AEVCZ4hHA+BNVwRcBkvXWbRhaDOBdAM4t/jULwK9QeM/199av7X6k0WPHHf9SfTd+pR3AAICLNDy200bHxrFz1z7k8w1/f2L8iabBAUBWW7dh6FoA/wigo8JvCQH8C4CPr1/bfaSeY5uMv+AIqCzCCGD8iWrAAUBWWrdhqB3AHShcKq/F8wD+pPhxrdOyIf6CI6CyBkYA409UIw4Ask4x/o0EcRjAZdONAJviLzgCKqtjBDD+RHXgiwDJKhHiDwBdAH68bsPQikq/wcb4A3xhYDU1vjCQ8SeqEwcAWSNi/EXFEWBr/AVHQGXTjADGn6gBHABkBUXxF1NGgO3xFxwBlVUYAYw/UYP4GgAyTnH8Sw0DuCy869bFcCD+pfiagMpKXhPA+BNFwCsAZJTG+ANAF/L5BzF77vfgUPwBXgmoprWlGUsWdT1/5tJT/5fpcyFyGa8AkDGa43/C+CjCTRuBkf0qj6ot/qV4JaCqk24lTJNsXjwTwKnFv+ahMIKbADSX/CV/nwFwDMAIgEPF/zsy6e/3YeW2iXj/S5BOHABkRGzxF2pHQCzxFxwBVSV3BGxevAjAKwAsB7AUJ2J/Kgp3VZyl+BHzALYD2ALgheJfpf/5BazcNqr4MUkjDgCKXezxF2pGQKzxFxwBVfk9AjYvXgDgbBRC/wqciH6nydMqIw/gSRQ+ols+qvvXWLntsNGzooo4AChWxuIvoo0AI/EXHAFV+TMCNi9eAuCSkr9eavaEIskDeAaFMfAYgJ8C+BVWbmN4LMABQLExHn/R2AgwGn/BEVCVmyNg8+JuAJfiRPDPNHtC2u0BcB+AewHci5Xbths+n8TiAKBYWBN/Ud8IsCL+giOgKjdGwObFywG8pfjXKw2fjWm/A3APCoPgp1i5bczw+SQGBwBpZ138RW0jwKr4C46AquwcAZsXn4dC8N8M4OWGz8ZWBwFsAPBNAD/Bym15w+fjNQ4A0sra+IvqI8DK+AuOgKrsGAGbFy8DcB2AtwLoNnou7tkO4HYAt2Hltl+ZPhkfcQCQNtbHX5QfAVbHX3AEVGVmBGxe3IJC8D8I4I9ifWx/PQngNgBfx8ptQ6ZPxhccAKRFMf53w5VvgCePACfiLzgCqopvBGxadjky4+9C0+gVKHzwDqk3BuBfAPw9Vm47ZPpkXMcBQMo5F38xPorwkY05HNr/NlfiLzgCqnoIQK+WEbB5cYDR9o8h23w9mo8tRPMx5Q9BZf0awBqs3DZs+kRcxgFASjkbf5HPHUIqfdH6td2/NX0q9eIIqErtCNi8OIVjsz+DbMtfIMRMtO8HUlklh6aa/RrAq7FyG/+HbxAHACnjfPxPGAZwGUeAd6KPgE3LWhGmbkK25b3IZVrQchhoOwSA30cN+ThWbus3fRKu4gAgJTyKv+AI8FNjI+ChFbMB/G9km69GPp1BkAdm7gea+NH3hu0DsJA3KWoMbwdMkXkYfwDoAvDjdRuGVpg+kXrxVsJV/SGAgb4bv1L7jXIefsU/Idu8D+Mz3o58OoPMODB7N+Nvh7kArjB9Eq7iAKBIPI2/4AjwU20j4JGXvxUPrjyAsZkfRj6dBgC0jgCzhoFULobTpBqdY/oEXMUBQA3zPP6CI8BPlUfAz19yJh5a8d84NutOZJs7Cr8YFi75z+A7zyzEt1w2iAOAGpKQ+AuOAD+dPAI2L27CpuXfxOjsQYzPWAEEhd8VhED7PqD5qLkzpWoOmD4BV3EAUN0SFn/BEeCnPwQwcPTBlR/GSNdBjLa/Hfl0cPyfBnmgfQ+f77fb70yfgKv4LgCqS0LjX4rvDvDIrOajuPaV38epLYen/sNUrhD/NN9mbrERAEv4qYCN4QCgmjH+x3EEeOC8xb/Hm3seRjoMpv7D9ATQvpcv9rPfP2Hltr8yfRKu4gCgmjD+U3AEOCqTyuM9K7+Hnva9FX7DWOE5/4B3orXckyh8EqBdt312CAcATYvxr2g4m89fvuHqpZtNn0i9+m78SnsYhj8JguA80+cSpzPmbMV7zh5AS7mf+gGg6Vjh1f4Bvy9abhjAH2HltqdMn4jL+CJAqorxr+zo+ETXszsPPHrxzY+/xfS51Ou5LTuWvPDirtNGR8dNn0ps3rjsv/DBs++uHP+WI8Wf/Bl/yw0DuIzxj45XAKgixr+yo+MT2LL7IHL5EOlUKj+nveXqB963/Numz6sW17z3xpcD+AmAhalUgIXz56K1tdn0aWnTnB7Hh87/FhZWextf89HCT/5kO4m/c0+92YgDgMpi/Csrjb9wZQSUxl9+zecR0N25A9ed/UNU/W/WNFp4wR/ZjvFXjAOApli3YWgmCi8SY/wnKRd/YfsIKBd/4eMIeO0Zv8TrujcjqHTJHyi+4G8vL/vbj/HXgAOATsL4V1Yt/sLWEVAt/sKnEfDOs+/GWZ3bq/+m9EThc/0Zf9sx/prwRYB03GtvffKUENgIxn+KWuIPALl8PrX/8NidNr0wsJb4A0A+H2Ln7n1w+YWB6VQO11/4zRrinwVm7WH87cf4a8QrAAQAuPSWJ7sOHRt7uqUp3blk3mxUuWiaOLXGv5QtVwJqjX8pV68EtGbG8ZELb8Ps6T68J5XjHf3cwPhrxgFAx+N/bDzbCQCdM1vAEVDQSPyF6RHQSPyFayOgo3UE1796PWZM9xuDsBD/9EQcp0WNY/xjwAGQcJPjLzgCosVfmBoBUeIvXBkBC9r34i/O/Taaqr3YT8zcBzQf039SFAXjHxMOgASrFH+R5BGgIv4i7hGgIv7C9hFwxpytuO7su5EOa3g5U+sIMIP3jLEc4x8jDoCEmi7+IokjQGX8RVwjQGX8ha0j4KwFg3jHy/8LQS3x53v9XcD4x4zvAkigWuMPAAeOjGHr3kNIykzUEX+g8O6AA4fH7rzqtsHXKD1wCR3xB068OyCbzT2n8rhRvHrJb/GOl/+ktvinsvyUP/sx/gZwACRMPfEXSRkBuuIv5ne2pdpbm7+7bsPQCtXH1hV/kc+HN2Yy6XMA/EzH8euxYuEzeMsfPFL9A35EEPLOfvZj/A3hAEiQRuIvfB8BuuO/aG475rXPAIAuAD9WOQJ0xx/AjXfcesOn+m/4wGEAvTA4AnrmDuFPX3Y/UEv8AaBtP1/xbzfG3yAOgISIEn/h6wiIMf5C2QiIK/7yNyZHwKLZu3Htintq+8kfKNzgh6/4txnjbxgHQAKoiL/wbQQYiL+IPALijr8wMQLmtR3Eh175PaRqjX8qB7Qd1HtSFAXjbwEOAM+pjL/wZQQYjL9oeASYir+IcwS0Nx/DX513JzK1xh8oXPrn8/62YvwtwQHgsXUbhmaOTmR/ozL+wvURYEH8Rd0jwHT8RRwjoDk9gY9c8J/Vb+c7WcsRoGlM1ylRNIy/RTgAPFW8q9/di+a2n9ralNHyGK6OAIviL2oeAbbEX+geAX/16vVoq+cn+VQWmMFL/5Zi/C3DAeAhiT+AizOpFM5Y0AGOgAIL4y+mHQG2xV/oGgHvWDGAeU2j9X3RzP28w5+dGH8LcQB4pjT+8mscAQUWx19UHAG2xl+oHgGvOW0zVszZVt8XtR4GMu7eythjjL+lOAA8Ui7+IukjwIH4iykjwPb4C1UjYEnHLrzhzF/W90WpHNDKz/m3EONvMd4LwBPV4l8qm8/j+V0HMTqR1XIeNt47wKH4lxoGcFl4160TcCD+pfpu/Eo7gAEAF9X7ta2ZMXziNd+o70V/AO/yZyfG33K8AuCBWuMPJO9KgKPxB4AuhOH96Jj3IByKPxDtSsCHz7+z/vhnxhh/+zD+DuAAcFw98RdJGQEOx78gCOYGF1x+CmbN0XF0LfEXjYyAP23kRX8AP/DHPoy/IzgAHNZI/IXvI8D5+IvmVgSrroDiEaA1/qKeEbC86zmcPWdr/Q/ScoSf9W8Xxt8hHACOihJ/4esI8Cb+Qu0IiCX+opYR0JzO4u3L/guo95UjQR6YwRf+WYTxdwwHgINUxF/4NgK8i79QMwJijb+YbgS8d+X30NTIgWcc4sf92oPxdxAHgGNUxl/4MgK8jb+INgKMxF9UGgHnLX4cZ8zcX/8B09nC5X+yAePvKA4Ah+iIv3B9BHgff9HYCDAafzF5BLQ1jeHNPQ81drDWEXUnRlEw/g7jAHCEzvgLV0dAYuIv6hsBVsRflI6A97/qO0jXc4c/kcoCzUdVnxrVj/F3HD8IyAFxxL+USx8WlLj4lxofRbhpIzBS8RK6VfEvNfbgKz/Rkm36h4a+uG0/0MIBYBjj7wEOAMvFHX/hwghIdPxF5RFgbfyxaVkbxmfsRz5T92f+IJUDOnYBxj9lItEYf0/wKQCLmYo/YP/TAYx/UfmnA+yNPwDk07c3FH+g+Nw/428Q4+8RDgBLmYy/sHUEMP6TnDwC7I7/pmXLMTHj9Q19bSrHS/9mMf6e0fOdnSKxIf5CRoCupwMOHBkDcKjmpwMY/wqaWxFc9PqjSGc2mD6VqnJN30EYNPbMT+th8Kd/Yxh/D/EKgGVsir+w5UoA4z+NdKYNk24lbJVNy9+JidaXNvS1QQg0833/hjD+nuIAsIiN8RemRwDjX7Mu2DoCJlr+teGvbT5aGAEUN8bfYxwAlrA5/sLUCGD862bfCHj4Ff+KXNOshr+ez/2bwPh7jm8DtIAL8S8V51sEGf9IhgFctn5tt9lv4JuWtWG87SDy6caWY3oCmL1b8UnRNBj/BOAVAMNciz8Q35WAo2OMf0R2XAnIp/+t4fgD/Mz/+DH+CcErAAa5GP9Suq8E6JSA+JfaBmD5+rXd8d87d9OyVoy3HUI+3dAN/xCEQMcOPv8fm2AvEF7K+CcDrwAY4nr8Af1XAnRJWPwBYDGAzxt55DD9zw3HH+CL/+KUagPmvPFmxj85OAAM8CH+wrURkMD4i/ev2zAU75+3TcsymGh+V6Rj8KY/8Ui1AfOuAVpfepHpU6H4cADEzKf4C1dGQILjDwABgHfE+ohh6qaGP/IXKHzyX2Zc4QlRWRL/TBcArMKuLy4xfUoUDw6AGBXj/0N4FH9h+whIePzFq2J7pE3LUphoeX+kYzQdU3QyVNHJ8QcKQ/GtBs+IYsQBEJOS+F9i+lx0sXUEMP7HrVi3Yajx5+PrEaY+h3ymJdIxmkcVnQyVNTX+4moTp0Px4wCIwaW3PNn13K4DLxwenfA2/sK2EcD4G5Jtvi7S1wd5IDOm6GRoisrxB/g0QGJwAGh26S1Pdh06Nvb0kbGJeS8MH8Th0QnTp6SdLSOA8Z/it+vXduv/A7hp+RXINXVGOkYzL/9rUz3+AJ8GSAwOAI0k/sfGs50AkA9DcATEg/Ev69FYHiWX+XTkYzTx8r8W08df8GmABOAA0GRy/AVHgH6Mf1khgG9of5RNy2Yj2xztxYZBCDTx8r9ytccf4NMAicABoMHqW56YXy7+giNAH8a/oi+vX9v9sPZHCVP9CFNBpGM0jQLT3hya6lJf/AE+DZAIHACKrb7lifkjx8afqhR/kcQR0NKU1vo4i+Yw/hW8AODjsTxStvlPIx+DL/5Tq/74Cz4N4DkOAIVqjb9I0ggYz+aQzeW1PsbR8Qn+3DjVTgBXrF/bfVj7I21afhVyTR2Rj8MBoE7j8Qf4NID3OAAUKca/4mX/SpIwAnTf0lfIXQQ5Ao7bCeDS9Wu7n4zl0XKZGyMfI8gDafduLmWlaPEH+DSA9zgAFCiJf0M//fg8AuKKv+AIOC7e+ANArumcyMfgT/9qRI+/4NMAHuMAiOiSm6PFX/g4AuKOv+AIMBD/TcvfiXw6+is9m/jZ/5Gpiz/ApwG8xgEQwSU3PzH/8Gj0+AufRoCp+IsEj4D44w8AufSHlByHVwCiURt/gE8DeI0DoEHrNgzNPDw6/pSq+AsfRoDp+IsEjgAz8QeAXNO5kY8R5IG0u3/ujVMff3GN6gOSHTgAGiA39uma3dYZ7Q3P5bk8AmyJv0jQCDAX/03Lr4p021/BW/82Tl/8AeBCPg3gJw6AOpXe1a+jrQWnnTIbHAEFtsVfJGAEmIs/AOTTf63kOPzpvzF64w/waQBvcQDUodwtfTkCCmyNv/B4BJiNPwDkml6j5Dh8+1/99Mdf8GkAD3EA1Khc/EXSR4Dt8RcejgDz8d+07ELkMmo+fpFXAOoTX/wBPg3gJQ6AGlSLv0jqCHAl/sKjEWA+/gAQpt+n7FgpXgGoWbzxB/g0gJc4AKZRS/xF0kaA7vg3pfX88fRgBNgRfwDIp6f996Im6WzhLoA0vfjjL/g0gGc4AKqoJ/4iKSNAd/wXzW1Hz6lztN1F0OERYE/8ASCXWarkOCnzf6adYC7+QOFpgNNMPDDpwQFQQSPxF76PgDjiP699hvZbCTs4AuyK/6Zl5yOfblJyLL4AcHpm4w/waQDvcACUESX+wtcREFf8BUfAcXbFHwDC1HuVHYsvAKzOfPwF7w3gEQ6ASVTEX/g2AuKOv+AIsDD+AJBPX6rsWKmcskN5x574A3wawCscACVUxl/4MgJMxV8keATYGX8AyGXOVHYsDoDy7Io/wKcBvMIBUKQj/sL1EWA6/iKBI8De+G9adpaSj/8VQV7ZobxhX/wFnwbwBAcA9MZfuDoCbIm/SNAI2AlgtZXxB4AwdZWyYwV5vgVwMnvjD/BpAG8kfgCs2zDUBs3xF66NANviLxIwAiT+T5k7hWmEwYXKjpXiT/8nsTv+AJ8G8EaiB0Ax/ncjhvgLV0aArfEXHo8A++MPAGHq5cqOFfD5/+Psj7/g0wAeSOwAiPMn/8lsHwG2x194OALciD8A5NOLlR2LVwAK3Ik/wKcBvJDIAVAS/9WmzsHWEeBK/IVHI8Cd+ANAPt2u7Fi8AuBa/AE+DeCFxA0AG+IvbBsBrsVfeDACdsCl+G9a9kqEKXV/bJN+BcC9+As+DeC4RA0Am+IvbBkBrsZfODwCdqDwVj834g8AYepy06fgDXfjD/BpAOclZgDYGH9hegS4Hn/h4AhwL/4AEAYXKD6g2sO5wu34A3wawHmJGAA2x1+YGgG+xF84NALcjD8AhKmlSo+n4w+97dyPv+DTAA7zfgC4EH8R9wjwLf7CgRHgbvwBIAzmKT6g2sPZzp/4A3wawGleDwCX4i/iGgG+xl9YPALcjj8AhKkOpcdL0qcA+hV/gE8DOM3bAeBi/EUcI+B5j+MvLBwB7scfAMJUm+lTcJJ/8Rd8GsBRXg4Al+MvdI+AvOfxFxaNAD/iDwBhSvH/mAm4AuBv/AE+DeAs7waAD/EXOkeADrbFX1gwAvyJ/6Zl8xEGav9IuvIHvFF+xx/g0wDO8moA+BR/4coIsDX+wuAI8Cf+AIBghfJDhrb/6Y7A//iLa0yfANXPmwHgY/yF7SPA9vgLAyPAs/gDCKHuJkDHj2nrn+yIkhN/ALiATwO4x4sB4HP8ha0jwJX4ixhHgH/xBwAES5Qf0scBkKz4A3wawEnOD4CLv/r4/Bf3jjyVD8PVps9FN9tGgGvxF7pHwJHRidzekWNv8y/+AAD1/w8Pnf82dLLkxV/waQDHOP1v3sVffXz+4bGJpw8cGV2yZfdB5EP/X01sywhwNf5C1whoSqdyc2a29v74PS97QOmB7dGi/pCm/zQrlNz4A3wawDnODgCJ/+h4tgMAjowVPtiGI0A/1+MvVI8Aif/971t2n5ID2igM1A8AX54CSHb8AT4N4BwnB8Dk+AuOAP18ib9QNQISEf+CVuVH9GEAMP6CTwM4xLkBUCn+giNAH9/iL6KOgATFHwCalR/R9dcAMP6l+DSAQ5z6N2+6+AuOAPV8jb9odAQkLP4AB8DJGP/JAvCjgZ3hzL95tcZfJGkENGfSSKX0TYAgCNCS0fOKeZvUOwISGH8AGl4DkE8rP2QsGP9KOAAc4cQAqDf+Igkj4Nh4Fs/vPqDtxj4AEJa5lbCvah0ByYw/AED9Esyn4dw7ARj/avg0gCOsHwCNxl/4PALiiL/IcwQcl+D4A8AxLUd16SoA4z8dPg3gCKsHQNT4Cx9HQJzxFxwBiY8/gPCglsPmXBkAwV50vO5/ItP1MBJxG8OGcQA4wNoBoCr+wqcRYCL+IskjgPEHEEDPAHDjCsAwEF6K0//1b7Hg+j8E0A3grwFwDEx1AXZ9sdv0SVB1Vg4A1fEXPowAk/EXJ0bAuLFziIuMgPbW5rHExx8AEO7Tcti89S8yHQZwGVZu++3xX1lw/VYsuP6LHANl8UOBHGDdAFi3YahtQefMO5tSKaXxFy6PABviLwoj4FBSRsCOM+Z3nMP4AwD2ajmq3VcApsZ/Mo6Bcvg0gOWC0KIQlt7VLywGZkRTYGa2NGHp/A6kAjdefWxT/EulggCnd81Ge6v6t4dbwtO7+jXo4Ve8C2Mzv6b8uJlxYNaw8sMqMH38q9n1xSUo/CR8NYBVcO7tDpGEAJZiwfVDpk+EyrPmCsDkW/oGxbDM0hQWl64E2Bp/wPsrAYz/VHoqnWvSctiIosUfqHRlYBOScWWATwNYzoorAMX43wXg0sn/LOlXAmyOfykPrwQw/uU8/IpXYWzmY1qOPXsXkM5qOXQDose/mhNXBq4BcCH8vTLwCBZcv8r0SVB5xgdAtfiLpI4AV+IvPBoBjH8lD63owPiMA1qOPXM/0HxUy6HrpDf+k/k9Bvg0gMWMDoBa4i+SNgJci7/wYAQw/tO5/7wcwpT6pw9bDwMz9LzLsA7xxn+ywifoyWsGfBkDH8WC6//R9EnQVMYGQD3xF0kZAbrjv2huO9JBClv3HtLyRKTDI4Dxr8UDrzyEXNMs5cfNjAGz9igzHnJQAAAaIklEQVQ/bB3Mxn8yf8YAnwawlJEB0Ej8he8jII74y139DhwZ4wg4gfGv1YPnbEG25XTlxw1CoHO78sPWyK74T+b2GODTAJaK/V0AUeIP+P3ugDjjDwCdM1uwZJ6eWwk79u4Axr8eQain0mFg6gOB7I4/ACy4/kUsuP4mLLj+NQBOB/ARuPNuAr4bwFKxDoCo8Rc+joC44y84ArADwGrGvw5B/jltx87G/nZA++M/mZtj4HLTJ0BTxTYAVMVf+DQCTMVfJHgESPyfNn0iTgnCx7UdO9ui7dBluBf/ydwZA2eZPgGaKpbXAKiOfynXXxNgOv6lEvaaAMa/UZuW92K0/W4tx07lgI6dWg49ifvxr+bEawauAXAB7HjNQCsWXD9m+iToBO0DQGf8hasjwKb4iwNHx7B1j/cjgPGPYtOyTozO2q/t+B27gJTWDwTyO/6T2TEGDmPB9erfOUKRaB0AccRfuDYCbIy/0DkCgiDAUrMjgPFX4aevGkU+o+d6fdsBoOWIlkMjafGfzNwY+D0WXM+nASyj7TUAccYfcOs1ATbHHwA621qw5BQ9rwkIwxBbzL0mgPFXJZ3bpu3YE626jpzs+AOlrxlYhcJrBj4K4BHof83AHZqPTw3QcgUg7viXsv1KgO3xL+XZlQDGX6WHzvoOxtvepOXYQQh07oDiJjH+1RSuDFxd/Ev1lYExFD4HIJYXd1DtlA8Ak/EXto4Al+IvPBkBjL9qDy//c4y1/4u2488aLtwiWA3Gvx67vtiNEx86pGIMfAALrv/3yOdFyikdADbEX9g2AlyMv3B8BDD+OmxatgCjs/T9RNc6Asw4pOJIjH8U0cfAl7Dg+uuVnxcpoWwA2BR/YcsIcDn+wtERwPjr9NNXjSGf0bPc0hPA7N1Rj8L4q1TfGBgD8GH+5G83JQPAxvgL0yPAh/gLx0YA46/bg+c8j2zLUm3Hn727MAQaw/jrdGIMXI7Ch/wsBnAYwAsovODvK3zO336RB4DN8RemRoBP8ReOjADGPw4PnfU9jLe9UdvxG789MOMft11fbOGH/Lgn0gBwIf4i7hHgY/yF5SOA8Y/LpuXvxGj7N7Qdv7FPBWT8E+aqLZ9fmM9mrwqC4Lwwj3MBtIQBHg2Ax9IhNt71kj59964o6h3sbwLwBgDnAzgXwFIAvwXwGIAHB3r6HtR9DsXzuBDAxQDOA3AOgK0AHgXwSwDfH+jpOymADQ8Al+Iv4hoBYxM5b+MvDh4dw4v2jYDtKNzVj/GPw6ZlKYzNnECY0ndPkVl7gEzNP1gy/glz5WD/O0LgnwHMqfBbRgF84sKesS/dgBvyOs6hd7D/bABfA7Cyym+7HcCfD/T07dN0Dh0AvgjgPVV+2+8AvHugp+9X8gsNDQAX4y90j4C25gzGsjmv4y90j4A6P9iJ8TfhwXO2INtyurbjtxwF2mr61GHGP0GuwZ3pkcFn/xOFFyROKwQeGBsfu+ony284rPI8egf7P4RCeGu5jeVOAH8y0NP3C8Xn8EoA3wewpIbfngXwsYGevpuABj4J0OX4A/o/MfDoeDYR8QeAjrYWnKbxEwPrGGqMvynp3I+0Hn98BhBO+yeM8U+YkcHn/gY1xh8AAuDi1uaWm1SeQ+9g/6sAfAm1xR8AFgK4rXewv03hObQAuA21xR8AMgC+0DvY/xqgzgHgevyF7hGgg23xFxaMAMbfpCD3Za3HD4PpPhqY8U+YNc9+5iwgvLGBL71uzTOffb2Kc+gd7G9G4bJ/ps4v7QHwWRXnUPT3AJbV+TUpAF/rHexvq3kA+BJ/4dIIsDX+wuAIYPxNW/XEr5HOjmp9jLGZlf4J459AQZj6OwANfeNOBcGnFZ3G21B4+2MjPtw72L8g6gn0DvbPQeFeDo3oAfCumgaAb/EXLowA2+MvDIwAxt8WqezvtB4/2wJMTPl3gPFPqKDwSvtGveKarTep+Ib66ghfGyDafwdxLoB0hK8/f9oB4Gv8hc0jwJX4ixhHAONvk1Tu29of42gHkD/+vY7xT6jXD/XPAXBmhENkRkZHq71av1bnGf56JedQdQD4Hn9h4whwLf5C9wjYtnckN57NXc74WyTIfxmBhtuKlsqngZEuINe0D4x/YmXHcG7kgwR4qYJTOSfi19f7vH05KyJ+/csrDoCkxF/YNAJcjb/QNQIy6VS+o63l9d9Zd8bvFR+aolj1xCFkxp/R/jhhkMd42/sZ/yQLXxX5CPnUnihf3zvYPxdA1Vem1kDFpyZ2RD2HsgMgafEXNowA1+MvVI+ATDqV72xrueqB65ZvVHRIUimV1XvTlyCfR8vRq7Hqcf1PN5C1giD6FYBUEG6PeIhTo54DgBEFx2iP+PWHpwyAYvx/gITFX5gcAb7EX6gaAYy/A4L8F5HK5zQdm/EnXHr/jZkAwYVRjzOezkcdAAujngMKN06KKuoAGDlpAJTE/7URD+w0EyPAt/iLqCOA8XfEqieySI9vVn5cxp+KWpa0fiwEuiMeJvtHZ0wMRzyGLwPgxBUAxv9kcY4AX+MvGh0BjL9j0tl/VHo8xp+K1jz7mbMChDcoONSggnsCePkUwHow/icJggDzO5R9amNZLU1pzJkZ9fUk9qt3BDD+Dlr1+DeRyqq5yQbjT0VXPfe5FUGYugMNfvhPqQD4oYJTUnEFIOpVCEDVUwDrNgxdC0DJRyT65Nh4FluGG7ofec3GJnLYMnwQec3vorJBrSOA8XdYZiL6bU8ZfwJw3mNfaeod7L8hnw8fC9S8bQ5BGHxfwWFUXAFQ8a6Zih+RWaPDmXUbhpYAUHvpzgPHxrNab+lb6sjoBLYMH8TSrg6kAh3voLdHR1sLcMrsincRZPwdl8p+EggvQ6Ov+mD8E+v1Q/1zJsZS56WC/HkIcX5XJy5EqCS2ReG+mS/5g4cUHOg0BceI9DkmvYP9p6L++xBMdjgD4FpEfz+hV+KMv+AIYPy9sOqJn+NnKx7BxIz6X63N+CfOmmc/c1YQpv6u+PG+Z6aC4tPzAaD+PuPBwB24OtI7VXoH+2cBuCDiiQwP9PQdiHgMFR9mdCADQMXHInrDRPxFkkcA4++RdPZNyGefQy5T+wtoGP9EuQZ3pkcGn/ubFFI3QsFz+7UIkPoXBYe5HNHPV8WnmKoYAM+lwAFwnMn4CxkBSXpNQCadyjH+Hln1xC40HTsb6YlDNf3+VHYMLUevYvyTY2Tw2f8Ews8ipviHCL57d8/HHlFwqDcqOIaKAfAyBcd4OgVgjoIDOc+G+IuEjYDtS7s6XsX4e2bVE8/i4l93oOXwR5AZL//Rq0EYomn012g+djpWPc7//ydE7+Dn3gng6hgfMpcJg09EPUjvYH8KwJUKzucXCo6h4grA0xkAvwFwiYKDOcum+IuEPB2wHcCl33/7mbyxj69e8/hNAG7CpuVXIwwuBXCk+NcIgvx/YNUTu8yeIMXpqi2fXwiE/xTnYwYIvn7XSz72hIJDrQJwioLj3K/gGFEHwCiAFzMANiPBA8DG+AvPRwBv6Zskqx6/E8Cdpk+DzMpns1cBQXxXnQPsyI/nPqnoaCou/+8a6Ol7MsoBegf7M4h2S2QAGBzo6QtTAO6OeCBn2Rx/4enTAYw/UQIFQRD1Hvb1GE3lwzdvXPaJHYqO9wYFx/ipgmMsB9AU8RhPA0Bq/druewF8I/IpOcaF+AvPRgDjT5RQYT763fxqFQDX/fAlH/+5imP1Dva/Emo+jOh+BcdYreAYhQFQ/Ju/AqBqJVnPpfgLT0bAdgCrGX+ixGqJ52HC/rt7+m5TeMB/UHScHyk4xmoFx3gGKA6A9Wu79wN4EwC9n3trAd3xXzS3XdsNhBwfARJ/FR+BSUQOCgM8GsOj9G/s+XjkV/2L3sH+1QB6FRzq0YGevkjf/3oH+wOoec3e74ETVwCwfm33LwCsgccjQHf8l8ydhXntM7TeRdDREcD4ExFSCHQOgNEAeOdAz8c/Hqr9HMHPKTrOfyg4xtkA5kY8xhEAvwJKBgAArF/b/XN4OgLiiP+c9sJd/XTfSvjI6AS27HZmBDD+RAQASIXhPSi8BU2tADtSYbha8WV/9A72rwXwagWHygG4XcFxVis4xkMDPX0TwKQBAPg5AuKMv9A+AsacGAGMPxEdd9dL+p4DoOzyPIBcgODWcDx/rqoX/Ini2+1UPfd/30BPn4rPvFit4Bg/kf8wZQAAfo0AE/EXCR8BjD8RTXFhz9iXQuCBqMcJEXw3HaZW3N3zt9cqfKtfqWuh5iN3AQXvtOsd7G8BcKmCc7lf/kPZAQD4MQJMxl8kdAQw/kRU1g24IT82PnYVgK/W/9XhPgC3BUit2tjzt29W9Al/U/QO9s8F8ClFh9sG4FsKjnMlot+59zBw4oWYQThNONZtGLoAwD0KHjhWNsS/VBiGeGH4EEZGx7Wcz8yWJiydb8UnBjL+RFSTNc989vWpIPg0gFeg/P3tswAGA+CHQRh8f+ZLznwo6i19p1O89H8v1Py0DQAfGejpuynqQXoH+zcAeEvEw2wc6Ok7/o6Gcv+Dn2T92u6fr9swtAYOjQDb4g+cuBKgawTIlQDDI4DxJ6Ka3fOSj98F4K5rtt40Y2R0dCUCvDTMp/akgnD7eDq//Y/OmBi+ATfkYz6tL0Fd/PcB+PeoB+kd7O8AcFX00znx/D9QwxUA4cqVABvjX8rjKwGMPxE5rXew/4MA/rfCQ/79QE/fDVEP0jvY/z409JTJFBcM9PQdvxthxdcATObCawJsjz/g7WsCGH8iclrvYP8lAP5Z4SGPKDzeOxQcYyeAx0p/oeYBANg9AlyIv/BsBDD+ROS03sH+M1B4oV7Um+yU+sxAT9+eqAfpHexfDDWf/nf7QE/fSa+fqGsAAHaOAJfiLzwZAYw/ETmtd7B/FoDvAThF4WGfBvAFRcf6ABpodRlTPomw5tcATGbLawJ0x3/x3FmYqzj+pRx+TQDjT0ROK/7k/z0AKxQfes1AT9+9UQ/SO9jfDmAIwJyIh3pyoKdvyt0MG14VNlwJcD3+gLNXAhh/InJa8Tn/X0B9/DeoiH/RBxE9/kCF+xBEuqxgcgT4EH/h2Ahg/InIacVX+98HtZf9gcIH7fy1igMVP/nvowoOFQL4Zrl/EPl5BRMjwKf4C0dGAONPRM7qHezP9A72fxmFt/qpfMGf+L8HevpeVHSsdwM4VcFxHh7o6Xu+3D9Q8cKCWEeAj/EXlo8Axp+InFX8eN97AXxI00N8baCnT8Utf9E72J8G8DEVx0KV2xArGQBAPCPA5/gLS0cA409ETir+1P8BAL+Duk/4m+wpAH+u8HjrAPyBguMcA3BHpX+obAAAekdAEuIvLBsBjD8ROal3sH8tCuH//6Hmcno5owDWDfT0HVFxsN7B/jYAn1VxLAA3D/T07av0D5UOAEDPCEhS/IUlI4DxJyLn9A72r+4d7P85Ch/uo+qWvpV8aKCn7zcKj/dJAN0KjpMF8Plqv6HhzwGYjqrPCTg6nsWWhMW/lMHPCWD8icgpvYP9rwTwDwB6p/u9inxioKdP1U/r6B3s70HhikWLgsN9faCn793VfsO0dwNslIq7CCY9/oCxuwhuA3Ap409ENusd7E8BWAXgjQDeAGDKh91o9CWV8S/6J6iJfwigf7rfpO0KgGj0SgDjf7IYrwQw/kRkreJH916OQvSvhPr38tfimwDeOdDTpyxQvYP9fwLgu4oO952Bnr63TPebtA8AoP4RwPiXp3sEzJ7RfOz0ro5zGH8iMqX4dr1TASws/nVqyf89DcAFAPS8OKo2PwTw5oGevglVB+wd7J8B4HEASxUd8qTb/lai7SmAUvU8HcD4V6bz6YBMOpVrzqTfzPgTUVx6B/tbAbwNwPkAzgNwNgCbv0F/E8B7VMa/6AtQF/8f1xJ/QMO7ACqp5d0BjP/0dLw7IJNO5TrbWq564Lrl9yg7KBFRFb2D/eehcH/6W1H4cJ5Xw+74fwmFy/5K49872P9WqP1wok/X+htjeQqgVKWnAxj/+qh6OoDxJ6K49Q72/zmALyKmq9AKKH21v+gd7D8TwK+g7q663xro6bu61t8c2xUAUe5KAONfPxVXAhh/Iopb72D/2QBughvxHwVwrab4NwNYD3XxPwLgI/V8QewDADh5BBwdn2D8GxRlBDD+RBS33sH+JgBfg54b8aj2FIALB3r6btV0/M+j8LoHVT5d742IjAwAoDACJnL51w8NH8oz/o1rZAQw/kRkyBsArDR9EjX4GoBzFX/C33G9g/1vBvCXCg/5FIB/rPeLjA0AAPj2NUt/1tHW8v50KlC+AJIQf1HPCGD8icig802fwDQOA/izgZ6+96j6bP/Jii9+/Lriw354oKev7heEGR0AAPDAdctvmTOz9TqVIyBJ8Re1jADGn4gMO9f0CVTxLQDLVd3St5zewf6XALgbQLvCw35roKfvvka+0PgAANSOgCTGX1QbAYw/EVlgqekTKONpAGsGevqurvc59Hr0DvYvROEdcF0KD1v3C/9KWTEAADUjIMnxF+VGAONPRJb4rekTKHEEhTvvrRjo6btX5wP1DvbPBrARwBmKD90XZbRYMwCAaCOA8T+hdAQw/kRkkcdMnwCAfQD+HsDSgZ6+zzTy3Hk9egf7WwB8D8A5ig/9nYGevn+JcgDr3of5wHXLb7n4q49j/5HRr+by4ZR71JazeG474z9JEATo7pq9ffjQ0T+7/9pl/2X6fIiIADxo8LG3AfhfAP59oKfvcBwPWIz/7QBWKz70CwCujXqQ2D8JsFYXf/Xxa2sZAYX4z4jrtFzCu/oRkXV6B/tvB7AupofLAbgPwDdQeLGc1p/2SxUv+38P6uM/AeDigZ6+R6IeyNoBAEw/Ahj/irYBWL1+bfeg6RMhIipVvNvf71G4w58ujwL4DwC3D/T07dL4OGUVX/C3Eeov+wPAxwZ6+j6v4kBWDwCg8ghg/Cti/InIar2D/a9G4c56f6DokLsA/BTA/QB+NNDTZ+zKZ/GtfvdA/Qv+AGAAwFUDPX1Kwm39AACmjgDGvyLGn4ic0DvYPxOFj8P9vwDU9HqvomEU3rr3NIBfALh/oKfvSfVnWL/ih/zcDbVv9RPbAZwz0NO3R9UBnRgAwIkRsLBzZsD4l8X4E5Fzegf7T0XhM/HPA/ByAGMARlD4VL7Dxf88DOAZAE8P9PQdMHSqVRU/3vfrUPshP2IMwB8P9PT9TOVBnRkAAHDlbYNrZrU2q7x7ki8YfyIiA4p39fs81H62f6k8gHUDPX3fUn1gpwYAAKzbMHQBCs+vcAQUMP5ERAb0DvaficItfVXe1W+yvxjo6fuyjgNb9UFAtSi9lbDpc7EA409EZEDvYP9bAfwKeuP/D7riDzh4BUDwSgDjT0QUt97B/hkAvgDgQ5of6uaBnr7rdD6Ac1cARMKvBDD+REQx6x3s/xMAj0N//H8A4IOaH8PdKwAigVcCGH8iohj1Dvb3APgnAL0xPNzDKLzi/5juB3J+AACJGgGMPxFRTHoH+9tQuGPgRwG0xPCQDwN4/UBP3/4YHsuPAQAkYgQw/kREMegd7E+jcL+CzwLojulhf4DC2/20/+QvvBkAgNcjgPEnItKsePe+dwP4GNR9THEtbgbwwYGevlyMj+nXAAC8HAGMPxGRRr2D/e0ovOjuowBOjfnh/2Ggp+/vYn5MAB4OAMCrEcD4ExFp0jvYvxjABwB8GMCcmB8+D+Avdb7PfzpeDgDAixHA+BMRKdY72N8B4K0A3gHgEph5O/wYgHfq+Hjfeng7AACnRwDjT0SkSPG5/SsBvBPAVYjnFf2VbEfhxX5Kb+zTCK8HAODkCGD8iYgi6B3sDwCcDWB18a9LYUcDBgC8S+UtfaPwfgAATo0Axp+IqE69g/0ZAMtxIviXAJhr8JQmm0Dh8wS+MNDTZ010EzEAACdGAONPRFRF72D/qQBeWvLXy4r/90wATQZPrZoXALxtoKfvEdMnMlliBgBg9Qhg/IkokXoH++cA/6e9eweNIojjOP4Fn5CUYiVXTaEGH0SjrQExbJsjXKcgWFikEYSxs1ywjQg2ggb1wMNGmEKCKRSMGtFCfC0GLyksIzEYMRqLvRCNIY977Nxmfh9Y7oq72191vz+z7CxHSJ+qd4D0/7lzhaMD2OopZr3uA2edsdO+g6wkqAEA2nIIUPmLSHCiJN4OXCbddGeL3zRNNwtYZ+yQ7yCrCW4AgLYaAlT+IhKcKIn3AneAw76ztMA94IIzdtJ3kLUEOQBAWwwBKn8RCU6UxB3Aa7LdajcL74FBZ+xD30HWy8cGCG2hXCyMAX3AVw+nV/mLSKiusLnKfxa4BBzMU/lDwCsAizysBKj8RSRIURL3AM9852ii3Cz3ryTYFYBFGa8EqPxFJGQnfAdokhGg1xk7kNfyBw0AQGZDgMpfRELX4ztAAxZIb+s77ow96Ywd9ZynYRoAalo8BEyh8hcROeQ7QB3mgZtAlzO23xm7aS5haAD4S4uGgCmgV+UvIsKU7wAb8B0YAowz9owz9q3vQM2mAWCZJg8BKn8RkSXPfQdYwwLwBDgP7HHGDjpjP3vO1DJ521YxE+ViYaxUqfbR2N0BKn8RkX+16/L5O2AYuO2MnfAdJivB3wa4mgZuEVT5i4gsEyXxNuAp0O07C/AFuAsMO2PHfYfxQQPAGmpDwANg1zq/MgGcUvmLiPwvSuIuYBzYkfGpvwGPgUfAKDDujP2VcYa2ogFgHUqV6m7gGtC/yscWgOvAxXKxMJNJMBGRHIqS+BxwldY+wneW9Hr+YuG/cMbOt/B8uaMBYANKleoAMED6AAsD/Ca9dvQKuFEuFkY8xhMRyY0oibuBW8D+Bn9qDkiAD7XjI/AGeOmM/dngb29qGgDqVKpUO4H5crEw5zuLiEgeRUm8EzgNHAOOAvuAH6TL9TO11+Xvp4FPLBX+pDNWRVaHPyEAPqQJXA5VAAAAAElFTkSuQmCC;shadow=1;" vertex="1" parent="1">
          <mxGeometry x="280" y="361.76" width="87.5" height="87.5" as="geometry" />
        </mxCell>
        <mxCell id="CtstYYITDIyHxA0FwCKV-18" value="" style="shape=image;verticalLabelPosition=bottom;labelBackgroundColor=default;verticalAlign=top;aspect=fixed;imageAspect=0;image=data:image/svg+xml,PHN2ZyB4bWxucz0iaHR0cDovL3d3dy53My5vcmcvMjAwMC9zdmciIHhtbG5zOnhsaW5rPSJodHRwOi8vd3d3LnczLm9yZy8xOTk5L3hsaW5rIiBpZD0ic3ZnNSIgdmVyc2lvbj0iMS4xIiB2aWV3Qm94PSIwIDAgOC40NjY2NjY1IDguNDY2NjY2OSIgaGVpZ2h0PSIzMiIgd2lkdGg9IjMyIj4mI3hhOyAgJiN4YTsgIDxkZWZzIGlkPSJkZWZzMiI+JiN4YTsgICAgPGxpbmVhckdyYWRpZW50IGlkPSJsaW5lYXJHcmFkaWVudDIzMTUiPiYjeGE7ICAgICAgPHN0b3AgaWQ9InN0b3AyMzExIiBvZmZzZXQ9IjAiIHN0eWxlPSJzdG9wLWNvbG9yOiNmZmZmZmY7c3RvcC1vcGFjaXR5OjE7Ii8+JiN4YTsgICAgICA8c3RvcCBpZD0ic3RvcDIzMTMiIG9mZnNldD0iMSIgc3R5bGU9InN0b3AtY29sb3I6IzU4NTg1ODtzdG9wLW9wYWNpdHk6MSIvPiYjeGE7ICAgIDwvbGluZWFyR3JhZGllbnQ+JiN4YTsgICAgPGxpbmVhckdyYWRpZW50IGlkPSJsaW5lYXJHcmFkaWVudDk0OS0xIj4mI3hhOyAgICAgIDxzdG9wIGlkPSJzdG9wOTQ1IiBvZmZzZXQ9IjAiIHN0eWxlPSJzdG9wLWNvbG9yOiMwMGZmMDA7c3RvcC1vcGFjaXR5OjE7Ii8+JiN4YTsgICAgICA8c3RvcCBpZD0ic3RvcDk0NyIgb2Zmc2V0PSIxIiBzdHlsZT0ic3RvcC1jb2xvcjojZTZmZmU2O3N0b3Atb3BhY2l0eToxIi8+JiN4YTsgICAgPC9saW5lYXJHcmFkaWVudD4mI3hhOyAgICAmI3hhOyAgICA8bGluZWFyR3JhZGllbnQgaWQ9ImxpbmVhckdyYWRpZW50OTk4Ij4mI3hhOyAgICAgIDxzdG9wIGlkPSJzdG9wOTk0IiBvZmZzZXQ9IjAiIHN0eWxlPSJzdG9wLWNvbG9yOiM5OTk5OTk7c3RvcC1vcGFjaXR5OjE7Ii8+JiN4YTsgICAgICA8c3RvcCBpZD0ic3RvcDk5NiIgb2Zmc2V0PSIxIiBzdHlsZT0ic3RvcC1jb2xvcjojNGQ0ZDRkO3N0b3Atb3BhY2l0eTowLjk3MzY4NDEzIi8+JiN4YTsgICAgPC9saW5lYXJHcmFkaWVudD4mI3hhOyAgICA8cmFkaWFsR3JhZGllbnQgZ3JhZGllbnRVbml0cz0idXNlclNwYWNlT25Vc2UiIGdyYWRpZW50VHJhbnNmb3JtPSJtYXRyaXgoMC4yNDk0OTk3OCwtMC4wMzYxMzU1NiwwLjEwMzk3MTU2LDAuNzE3ODc2OSwtNC45ODA5Mjc0LC0yNy4yNDU0NzgpIiByPSI0LjYwNDU3MDQiIGZ5PSI0Ny40MjQyNzQiIGZ4PSIyLjExMjY1OTIiIGN5PSI0Ny40MjQyNzQiIGN4PSIyLjExMjY1OTIiIGlkPSJyYWRpYWxHcmFkaWVudDEyNDQwIiB4bGluazpocmVmPSIjbGluZWFyR3JhZGllbnQxMjQzNiIvPiYjeGE7ICAgIDxsaW5lYXJHcmFkaWVudCBpZD0ibGluZWFyR3JhZGllbnQxMjQzNiI+JiN4YTsgICAgICA8c3RvcCBpZD0ic3RvcDEyNDMyIiBvZmZzZXQ9IjAiIHN0eWxlPSJzdG9wLWNvbG9yOiNmZmZmZmY7c3RvcC1vcGFjaXR5OjE7Ii8+JiN4YTsgICAgICA8c3RvcCBpZD0ic3RvcDEyNDM0IiBvZmZzZXQ9IjEiIHN0eWxlPSJzdG9wLWNvbG9yOiNmZmZmZmY7c3RvcC1vcGFjaXR5OjA7Ii8+JiN4YTsgICAgPC9saW5lYXJHcmFkaWVudD4mI3hhOyAgICA8cmFkaWFsR3JhZGllbnQgZ3JhZGllbnRVbml0cz0idXNlclNwYWNlT25Vc2UiIGdyYWRpZW50VHJhbnNmb3JtPSJtYXRyaXgoMy44NTAyMzU5LDIuMjkwNjk1NywtMS4yODAyODQsMi4xNTE5MjA1LC05LjI4MjMxMTQsLTE4LjMzNzE3NSkiIHI9IjIuMzQ3MDA4NyIgZnk9IjUuMDUzMzY4NiIgZng9IjUuNDYzODgzOSIgY3k9IjUuMDUzMzY4NiIgY3g9IjUuNDYzODgzOSIgaWQ9InJhZGlhbEdyYWRpZW50MTEwMSIgeGxpbms6aHJlZj0iI2xpbmVhckdyYWRpZW50OTk4Ii8+JiN4YTsgICAgPGxpbmVhckdyYWRpZW50IGdyYWRpZW50VW5pdHM9InVzZXJTcGFjZU9uVXNlIiB5Mj0iLTAuMDAzOTA2ODM3NyIgeDI9Ii0wLjAwMDU3Mzc5OTMxIiB5MT0iLTYuNDQyODg1NCIgeDE9Ii0xLjA1MTA0OTIiIGlkPSJsaW5lYXJHcmFkaWVudDEwNzciIHhsaW5rOmhyZWY9IiNsaW5lYXJHcmFkaWVudDk0OS0xIi8+JiN4YTsgICAgPGxpbmVhckdyYWRpZW50IGdyYWRpZW50VW5pdHM9InVzZXJTcGFjZU9uVXNlIiB5Mj0iNy4zMjI5Mzk0IiB4Mj0iNy40MDk4MDI5IiB5MT0iNi4wMDUwMjQ0IiB4MT0iNS44NDUzMTA3IiBpZD0ibGluZWFyR3JhZGllbnQxNzYwIiB4bGluazpocmVmPSIjbGluZWFyR3JhZGllbnQyMzE1Ii8+JiN4YTsgIDwvZGVmcz4mI3hhOyAgPGcgaWQ9ImxheWVyMSI+JiN4YTsgICAgPHJlY3Qgcnk9IjAuODcxNTQ2OCIgeT0iMC4wMDI3OTIxODg3IiB4PSIwLjAwMjc5MjE4NzMiIGhlaWdodD0iOC40NzcyMTY3IiB3aWR0aD0iOC40NjU5MjkiIGlkPSJyZWN0NTMiIHN0eWxlPSJvcGFjaXR5OjAuODEyMTIxO2ZpbGw6IzE2MTYxNjtmaWxsLW9wYWNpdHk6MC44OTg0OTY7c3Ryb2tlLXdpZHRoOjAuMTI2MzMzO3N0cm9rZS1saW5lY2FwOnNxdWFyZTtzdHJva2UtbGluZWpvaW46cm91bmQ7cGFpbnQtb3JkZXI6bWFya2VycyBmaWxsIHN0cm9rZSIvPiYjeGE7ICAgIDxlbGxpcHNlIHRyYW5zZm9ybT0icm90YXRlKC00MS44MDk3OTEpIiByeT0iMC41NTQ3Nzk2NSIgcng9IjAuNTgxNzEwNyIgY3k9IjYuNzIyOTcxOSIgY3g9IjAuNDc2OTU2NzMiIGlkPSJwYXRoMTE4Mi0zIiBzdHlsZT0iZmlsbDp1cmwoI3JhZGlhbEdyYWRpZW50MTI0NDApO2ZpbGwtb3BhY2l0eToxO3N0cm9rZS13aWR0aDowLjEyMDU2MztzdHJva2UtbGluZWNhcDpzcXVhcmU7c3Ryb2tlLWxpbmVqb2luOnJvdW5kO3BhaW50LW9yZGVyOm1hcmtlcnMgZmlsbCBzdHJva2UiLz4mI3hhOyAgICA8cGF0aCBkPSJNIDIuOTM4MTc1MSw3LjEwMzk1ODIgQSAyLjg5OTU5NzEsMi45ODU2NzkxIDM4LjgxNTYzNCAwIDAgNi45NTkxNDE3LDYuNTEzOTI5MSAyLjg5OTU5NzEsMi45ODU2NzkxIDM4LjgxNTYzNCAwIDAgNi42NzQxNzU2LDIuNDU5OTA2MiBaIiBzdHlsZT0ib3BhY2l0eToxO2ZpbGw6dXJsKCNyYWRpYWxHcmFkaWVudDExMDEpO2ZpbGwtb3BhY2l0eToxO3N0cm9rZS13aWR0aDowLjEwMTQxMztzdHJva2UtbGluZWNhcDpzcXVhcmU7c3Ryb2tlLWxpbmVqb2luOnJvdW5kO3BhaW50LW9yZGVyOm1hcmtlcnMgZmlsbCBzdHJva2UiIGlkPSJwYXRoMTE0NjMiLz4mI3hhOyAgICA8cmVjdCByeT0iMC42Mzg5ODk4MSIgeT0iNS42MzQyOTU1IiB4PSI2LjI5MjA2MTgiIGhlaWdodD0iMi40MTY3NzM2IiB3aWR0aD0iMS4xNDAwNzg0IiBpZD0icmVjdDExODEzIiBzdHlsZT0ib3BhY2l0eToxO2ZpbGw6dXJsKCNsaW5lYXJHcmFkaWVudDE3NjApO2ZpbGwtb3BhY2l0eToxO3N0cm9rZS13aWR0aDowLjEzNDtzdHJva2UtbGluZWNhcDpzcXVhcmU7c3Ryb2tlLWxpbmVqb2luOnJvdW5kO3BhaW50LW9yZGVyOm1hcmtlcnMgZmlsbCBzdHJva2U7c3Ryb2tlLW1pdGVybGltaXQ6NDtzdHJva2UtZGFzaGFycmF5Om5vbmU7ZmlsbC1ydWxlOm5vbnplcm8iLz4mI3hhOyAgICA8cGF0aCBkPSJtIDEuOTg0Mzc1LC01Ljg1NTQ2ODggYSAwLjEyOTkwMTQ4LDAuMTI5OTAxNDggMCAwIDAgLTAuMTMwODU5NCwwLjEzMDg1OTQgdiAwLjI1IGMgMCwxLjExNDY0NDcgLTAuNzg4MzkzOSwyLjEwNzIzNzIgLTEuOTY4NzQ5OTgsMi40MjE4NzUgLTEuMTc5Nzk3OTIsMC4zMTQ0ODkxIC0yLjQ0MDMyNjEyLC0wLjE0NjQ1OCAtMy4wNzYxNzE4MiwtMS4xMDE1NjI1IGwgLTAuMTM4NjcxOSwtMC4yMDg5ODQzIGEgMC4xMjk5MDE0OCwwLjEyOTkwMTQ4IDAgMCAwIC0wLjE3OTY4NzUsLTAuMDM1MTU2IGwgLTAuNDE2MDE1NiwwLjI3NzM0MzcgYSAwLjEyOTkwMTQ4LDAuMTI5OTAxNDggMCAwIDAgLTAuMDM1MTU2LDAuMTc5Njg3NiBsIDAuMTM4NjcxOSwwLjIwODk4NDMgYyAwLjgyNzQwMTcsMS4yNDI4NDA3IDIuNDE2NTU1MywxLjgwODE2MzcgMy45MDIzNDM3MiwxLjQxMjEwOTQgQyAxLjU2NjQ0MDQsLTIuNzE2NTE5OCAyLjYxNTIzNDQsLTQuMDAwMzMxNyAyLjYxNTIzNDQsLTUuNDc0NjA5NCB2IC0wLjI1IEEgMC4xMjk5MDE0OCwwLjEyOTkwMTQ4IDAgMCAwIDIuNDg0Mzc1LC01Ljg1NTQ2ODggWiIgdHJhbnNmb3JtPSJyb3RhdGUoMTQzLjM1NTM0KSIgc3R5bGU9ImNvbG9yOiMwMDAwMDA7ZmlsbDp1cmwoI2xpbmVhckdyYWRpZW50MTA3Nyk7c3Ryb2tlLWxpbmVjYXA6c3F1YXJlO3N0cm9rZS1saW5lam9pbjpyb3VuZDtwYWludC1vcmRlcjptYXJrZXJzIGZpbGwgc3Ryb2tlO3N0cm9rZTojMDA4MDAwO3N0cm9rZS13aWR0aDowLjE7c3Ryb2tlLW1pdGVybGltaXQ6NDtzdHJva2UtZGFzaGFycmF5Om5vbmU7ZmlsbC1vcGFjaXR5OjEiIGlkPSJwYXRoMTUxOCIvPiYjeGE7ICAgIDxwYXRoIGQ9Im0gMS45ODQzNzUsLTUuOTcwNzAzMSBhIDAuMjQ2NjczMDUsMC4yNDY2NzMwNSAwIDAgMCAtMC4yNDYwOTM4LDAuMjQ2MDkzNyB2IDAuMjUgYyAwLDEuMDU5NDQgLTAuNzUxMTM2MjMsMi4wMDY0MTE1IC0xLjg4NDc2NTU4LDIuMzA4NTkzOCBDIC0xLjI3OTA1MzgsLTIuODY0MTE1OSAtMi40ODc1NzQxLC0zLjMwODIxMjggLTMuMDkzNzUsLTQuMjE4NzUgbCAtMC4xMzg2NzE5LC0wLjIwODk4NDQgYSAwLjI0NjY3MzA1LDAuMjQ2NjczMDUgMCAwIDAgLTAuMzQxNzk2OSwtMC4wNjgzNTkgTCAtMy45OTAyMzQ0LC00LjIxODc1IGEgMC4yNDY2NzMwNSwwLjI0NjY3MzA1IDAgMCAwIC0wLjA2ODM1OSwwLjM0MTc5NjkgbCAwLjEzODY3MTksMC4yMDg5ODQzIGMgMC44NTY2NTY5LDEuMjg2Nzg1IDIuNDk4NjIyLDEuODY5NDc3NSA0LjAzMTI1MDAyLDEuNDYwOTM3NiAxLjUzMzcxNzY4LC0wLjQwODgzMDUgMi42MTkxNDA2OCwtMS43Mzc5OTIgMi42MTkxNDA2OCwtMy4yNjc1NzgyIHYgLTAuMjUgQSAwLjI0NjY3MzA1LDAuMjQ2NjczMDUgMCAwIDAgMi40ODQzNzUsLTUuOTcwNzAzMSBaIiB0cmFuc2Zvcm09Im1hdHJpeCgtMC41MTg0MjgzNSwwLjM4NTY0NjIxLC0wLjM4NTY0NjIxLC0wLjUxODQyODM1LDEuNTk0Mzk0MSwxLjQ5ODg2NCkiIHN0eWxlPSJjb2xvcjojMDAwMDAwO2ZpbGw6dXJsKCNsaW5lYXJHcmFkaWVudDEwNzcpO3N0cm9rZS1saW5lY2FwOnNxdWFyZTtzdHJva2UtbGluZWpvaW46cm91bmQ7LWlua3NjYXBlLXN0cm9rZTpub25lO3BhaW50LW9yZGVyOm1hcmtlcnMgZmlsbCBzdHJva2U7ZmlsbC1vcGFjaXR5OjE7Zm9udC12YXJpYXRpb24tc2V0dGluZ3M6bm9ybWFsO29wYWNpdHk6MTt2ZWN0b3ItZWZmZWN0Om5vbmU7c3Ryb2tlOiMwMDgwMDA7c3Ryb2tlLXdpZHRoOjAuMTU0NzY2MzI7c3Ryb2tlLW1pdGVybGltaXQ6NDtzdHJva2UtZGFzaGFycmF5Om5vbmU7c3Ryb2tlLWRhc2hvZmZzZXQ6MDtzdHJva2Utb3BhY2l0eToxO3N0b3AtY29sb3I6IzAwMDAwMDtzdG9wLW9wYWNpdHk6MSIgaWQ9InBhdGgyNTMwIi8+JiN4YTsgICAgPHBhdGggZD0ibSAxLjk4NDM3NSwtNi4wNjQ0NTMxIGEgMC4zNDA2MjkzNiwwLjM0MDYyOTM2IDAgMCAwIC0wLjMzOTg0MzgsMC4zMzk4NDM3IHYgMC4yNSBjIDAsMS4wMTUwMjEzIC0wLjcxODQyMDgzLDEuOTI0NjM2NiAtMS44MTQ0NTMwOCwyLjIxNjc5NjkgQyAtMS4yNjM5OTM3LC0yLjk2NjE3NDggLTIuNDMzMDU0NCwtMy4zOTU2NTMgLTMuMDE1NjI1LC00LjI2OTUzMTIgdiAtMC4wMDE5NSBsIC0wLjEzODY3MTksLTAuMjA3MDMxMiBhIDAuMzQwNjI5MzYsMC4zNDA2MjkzNiAwIDAgMCAtMC40NzI2NTYyLC0wLjA5NTcwMyBsIC0wLjQxNjAxNTcsMC4yNzczNDM4IGEgMC4zNDA2MjkzNiwwLjM0MDYyOTM2IDAgMCAwIC0wLjA5Mzc1LDAuNDcwNzAzMSBsIDAuMTM4NjcxOSwwLjIwODk4NDQgYSAwLjM0MDYyOTM2LDAuMzQwNjI5MzYgMCAwIDAgMCwwLjAwMTk1IGMgMC44ODAxOTYxLDEuMzIyMTQzMiAyLjU2MjQ5NjYsMS45MTg1ODYyIDQuMTMyODEyNTIsMS41IDEuNTcxODIwNjgsLTAuNDE4OTg3MiAyLjY4OTQ1MzA4LC0xLjc4NTI4NjcgMi42ODk0NTMxOCwtMy4zNTkzNzUgdiAtMC4yNSBBIDAuMzQwNjI5MzYsMC4zNDA2MjkzNiAwIDAgMCAyLjQ4NDM3NSwtNi4wNjQ0NTMxIFoiIHRyYW5zZm9ybT0ibWF0cml4KC0wLjMwMTc4MzAxLDAuMjI0NDg5MDIsLTAuMjI0NDg5MDIsLTAuMzAxNzgzMDEsMy4wMDc2MDUyLDIuNzg0OTc1OSkiIHN0eWxlPSJjb2xvcjojMDAwMDAwO2ZpbGw6dXJsKCNsaW5lYXJHcmFkaWVudDEwNzcpO3N0cm9rZS1saW5lY2FwOnNxdWFyZTtzdHJva2UtbGluZWpvaW46cm91bmQ7LWlua3NjYXBlLXN0cm9rZTpub25lO3BhaW50LW9yZGVyOm1hcmtlcnMgZmlsbCBzdHJva2U7Zm9udC12YXJpYXRpb24tc2V0dGluZ3M6bm9ybWFsO29wYWNpdHk6MTt2ZWN0b3ItZWZmZWN0Om5vbmU7ZmlsbC1vcGFjaXR5OjE7c3Ryb2tlOiMwMDgwMDA7c3Ryb2tlLXdpZHRoOjAuMjY1ODcwNjc7c3Ryb2tlLW1pdGVybGltaXQ6NDtzdHJva2UtZGFzaGFycmF5Om5vbmU7c3Ryb2tlLWRhc2hvZmZzZXQ6MDtzdHJva2Utb3BhY2l0eToxO3N0b3AtY29sb3I6IzAwMDAwMDtzdG9wLW9wYWNpdHk6MSIgaWQ9InBhdGgyNTMyIi8+JiN4YTsgIDwvZz4mI3hhOzwvc3ZnPg==;" vertex="1" parent="1">
          <mxGeometry x="110" y="354" width="62" height="62" as="geometry" />
        </mxCell>
        <mxCell id="CtstYYITDIyHxA0FwCKV-19" style="edgeStyle=orthogonalEdgeStyle;rounded=0;orthogonalLoop=1;jettySize=auto;html=1;exitX=0.75;exitY=1;exitDx=0;exitDy=0;entryX=0.5;entryY=0;entryDx=0;entryDy=0;entryPerimeter=0;shadow=1;strokeColor=#82b366;strokeWidth=2;align=center;verticalAlign=middle;fontFamily=Helvetica;fontSize=11;fontColor=default;labelBackgroundColor=default;startArrow=classic;startFill=1;endArrow=classic;fillColor=#d5e8d4;" edge="1" parent="1" source="CtstYYITDIyHxA0FwCKV-18" target="CtstYYITDIyHxA0FwCKV-9">
          <mxGeometry relative="1" as="geometry" />
        </mxCell>
        <mxCell id="CtstYYITDIyHxA0FwCKV-23" value="" style="shape=image;verticalLabelPosition=bottom;labelBackgroundColor=default;verticalAlign=top;aspect=fixed;imageAspect=0;image=data:image/svg+xml,PHN2ZyB4bWxucz0iaHR0cDovL3d3dy53My5vcmcvMjAwMC9zdmciIHhtbG5zOnhsaW5rPSJodHRwOi8vd3d3LnczLm9yZy8xOTk5L3hsaW5rIiBpZD0ic3ZnNSIgdmVyc2lvbj0iMS4xIiB2aWV3Qm94PSIwIDAgOC40NjY2NjY1IDguNDY2NjY2OSIgaGVpZ2h0PSIzMiIgd2lkdGg9IjMyIj4mI3hhOyAgJiN4YTsgIDxkZWZzIGlkPSJkZWZzMiI+JiN4YTsgICAgPGxpbmVhckdyYWRpZW50IGlkPSJsaW5lYXJHcmFkaWVudDIzMTUiPiYjeGE7ICAgICAgPHN0b3AgaWQ9InN0b3AyMzExIiBvZmZzZXQ9IjAiIHN0eWxlPSJzdG9wLWNvbG9yOiNmZmZmZmY7c3RvcC1vcGFjaXR5OjE7Ii8+JiN4YTsgICAgICA8c3RvcCBpZD0ic3RvcDIzMTMiIG9mZnNldD0iMSIgc3R5bGU9InN0b3AtY29sb3I6IzU4NTg1ODtzdG9wLW9wYWNpdHk6MSIvPiYjeGE7ICAgIDwvbGluZWFyR3JhZGllbnQ+JiN4YTsgICAgPGxpbmVhckdyYWRpZW50IGlkPSJsaW5lYXJHcmFkaWVudDk0OS0xIj4mI3hhOyAgICAgIDxzdG9wIGlkPSJzdG9wOTQ1IiBvZmZzZXQ9IjAiIHN0eWxlPSJzdG9wLWNvbG9yOiMwMGZmMDA7c3RvcC1vcGFjaXR5OjE7Ii8+JiN4YTsgICAgICA8c3RvcCBpZD0ic3RvcDk0NyIgb2Zmc2V0PSIxIiBzdHlsZT0ic3RvcC1jb2xvcjojZTZmZmU2O3N0b3Atb3BhY2l0eToxIi8+JiN4YTsgICAgPC9saW5lYXJHcmFkaWVudD4mI3hhOyAgICAmI3hhOyAgICA8bGluZWFyR3JhZGllbnQgaWQ9ImxpbmVhckdyYWRpZW50OTk4Ij4mI3hhOyAgICAgIDxzdG9wIGlkPSJzdG9wOTk0IiBvZmZzZXQ9IjAiIHN0eWxlPSJzdG9wLWNvbG9yOiM5OTk5OTk7c3RvcC1vcGFjaXR5OjE7Ii8+JiN4YTsgICAgICA8c3RvcCBpZD0ic3RvcDk5NiIgb2Zmc2V0PSIxIiBzdHlsZT0ic3RvcC1jb2xvcjojNGQ0ZDRkO3N0b3Atb3BhY2l0eTowLjk3MzY4NDEzIi8+JiN4YTsgICAgPC9saW5lYXJHcmFkaWVudD4mI3hhOyAgICA8cmFkaWFsR3JhZGllbnQgZ3JhZGllbnRVbml0cz0idXNlclNwYWNlT25Vc2UiIGdyYWRpZW50VHJhbnNmb3JtPSJtYXRyaXgoMC4yNDk0OTk3OCwtMC4wMzYxMzU1NiwwLjEwMzk3MTU2LDAuNzE3ODc2OSwtNC45ODA5Mjc0LC0yNy4yNDU0NzgpIiByPSI0LjYwNDU3MDQiIGZ5PSI0Ny40MjQyNzQiIGZ4PSIyLjExMjY1OTIiIGN5PSI0Ny40MjQyNzQiIGN4PSIyLjExMjY1OTIiIGlkPSJyYWRpYWxHcmFkaWVudDEyNDQwIiB4bGluazpocmVmPSIjbGluZWFyR3JhZGllbnQxMjQzNiIvPiYjeGE7ICAgIDxsaW5lYXJHcmFkaWVudCBpZD0ibGluZWFyR3JhZGllbnQxMjQzNiI+JiN4YTsgICAgICA8c3RvcCBpZD0ic3RvcDEyNDMyIiBvZmZzZXQ9IjAiIHN0eWxlPSJzdG9wLWNvbG9yOiNmZmZmZmY7c3RvcC1vcGFjaXR5OjE7Ii8+JiN4YTsgICAgICA8c3RvcCBpZD0ic3RvcDEyNDM0IiBvZmZzZXQ9IjEiIHN0eWxlPSJzdG9wLWNvbG9yOiNmZmZmZmY7c3RvcC1vcGFjaXR5OjA7Ii8+JiN4YTsgICAgPC9saW5lYXJHcmFkaWVudD4mI3hhOyAgICA8cmFkaWFsR3JhZGllbnQgZ3JhZGllbnRVbml0cz0idXNlclNwYWNlT25Vc2UiIGdyYWRpZW50VHJhbnNmb3JtPSJtYXRyaXgoMy44NTAyMzU5LDIuMjkwNjk1NywtMS4yODAyODQsMi4xNTE5MjA1LC05LjI4MjMxMTQsLTE4LjMzNzE3NSkiIHI9IjIuMzQ3MDA4NyIgZnk9IjUuMDUzMzY4NiIgZng9IjUuNDYzODgzOSIgY3k9IjUuMDUzMzY4NiIgY3g9IjUuNDYzODgzOSIgaWQ9InJhZGlhbEdyYWRpZW50MTEwMSIgeGxpbms6aHJlZj0iI2xpbmVhckdyYWRpZW50OTk4Ii8+JiN4YTsgICAgPGxpbmVhckdyYWRpZW50IGdyYWRpZW50VW5pdHM9InVzZXJTcGFjZU9uVXNlIiB5Mj0iLTAuMDAzOTA2ODM3NyIgeDI9Ii0wLjAwMDU3Mzc5OTMxIiB5MT0iLTYuNDQyODg1NCIgeDE9Ii0xLjA1MTA0OTIiIGlkPSJsaW5lYXJHcmFkaWVudDEwNzciIHhsaW5rOmhyZWY9IiNsaW5lYXJHcmFkaWVudDk0OS0xIi8+JiN4YTsgICAgPGxpbmVhckdyYWRpZW50IGdyYWRpZW50VW5pdHM9InVzZXJTcGFjZU9uVXNlIiB5Mj0iNy4zMjI5Mzk0IiB4Mj0iNy40MDk4MDI5IiB5MT0iNi4wMDUwMjQ0IiB4MT0iNS44NDUzMTA3IiBpZD0ibGluZWFyR3JhZGllbnQxNzYwIiB4bGluazpocmVmPSIjbGluZWFyR3JhZGllbnQyMzE1Ii8+JiN4YTsgIDwvZGVmcz4mI3hhOyAgPGcgaWQ9ImxheWVyMSI+JiN4YTsgICAgPHJlY3Qgcnk9IjAuODcxNTQ2OCIgeT0iMC4wMDI3OTIxODg3IiB4PSIwLjAwMjc5MjE4NzMiIGhlaWdodD0iOC40NzcyMTY3IiB3aWR0aD0iOC40NjU5MjkiIGlkPSJyZWN0NTMiIHN0eWxlPSJvcGFjaXR5OjAuODEyMTIxO2ZpbGw6IzE2MTYxNjtmaWxsLW9wYWNpdHk6MC44OTg0OTY7c3Ryb2tlLXdpZHRoOjAuMTI2MzMzO3N0cm9rZS1saW5lY2FwOnNxdWFyZTtzdHJva2UtbGluZWpvaW46cm91bmQ7cGFpbnQtb3JkZXI6bWFya2VycyBmaWxsIHN0cm9rZSIvPiYjeGE7ICAgIDxlbGxpcHNlIHRyYW5zZm9ybT0icm90YXRlKC00MS44MDk3OTEpIiByeT0iMC41NTQ3Nzk2NSIgcng9IjAuNTgxNzEwNyIgY3k9IjYuNzIyOTcxOSIgY3g9IjAuNDc2OTU2NzMiIGlkPSJwYXRoMTE4Mi0zIiBzdHlsZT0iZmlsbDp1cmwoI3JhZGlhbEdyYWRpZW50MTI0NDApO2ZpbGwtb3BhY2l0eToxO3N0cm9rZS13aWR0aDowLjEyMDU2MztzdHJva2UtbGluZWNhcDpzcXVhcmU7c3Ryb2tlLWxpbmVqb2luOnJvdW5kO3BhaW50LW9yZGVyOm1hcmtlcnMgZmlsbCBzdHJva2UiLz4mI3hhOyAgICA8cGF0aCBkPSJNIDIuOTM4MTc1MSw3LjEwMzk1ODIgQSAyLjg5OTU5NzEsMi45ODU2NzkxIDM4LjgxNTYzNCAwIDAgNi45NTkxNDE3LDYuNTEzOTI5MSAyLjg5OTU5NzEsMi45ODU2NzkxIDM4LjgxNTYzNCAwIDAgNi42NzQxNzU2LDIuNDU5OTA2MiBaIiBzdHlsZT0ib3BhY2l0eToxO2ZpbGw6dXJsKCNyYWRpYWxHcmFkaWVudDExMDEpO2ZpbGwtb3BhY2l0eToxO3N0cm9rZS13aWR0aDowLjEwMTQxMztzdHJva2UtbGluZWNhcDpzcXVhcmU7c3Ryb2tlLWxpbmVqb2luOnJvdW5kO3BhaW50LW9yZGVyOm1hcmtlcnMgZmlsbCBzdHJva2UiIGlkPSJwYXRoMTE0NjMiLz4mI3hhOyAgICA8cmVjdCByeT0iMC42Mzg5ODk4MSIgeT0iNS42MzQyOTU1IiB4PSI2LjI5MjA2MTgiIGhlaWdodD0iMi40MTY3NzM2IiB3aWR0aD0iMS4xNDAwNzg0IiBpZD0icmVjdDExODEzIiBzdHlsZT0ib3BhY2l0eToxO2ZpbGw6dXJsKCNsaW5lYXJHcmFkaWVudDE3NjApO2ZpbGwtb3BhY2l0eToxO3N0cm9rZS13aWR0aDowLjEzNDtzdHJva2UtbGluZWNhcDpzcXVhcmU7c3Ryb2tlLWxpbmVqb2luOnJvdW5kO3BhaW50LW9yZGVyOm1hcmtlcnMgZmlsbCBzdHJva2U7c3Ryb2tlLW1pdGVybGltaXQ6NDtzdHJva2UtZGFzaGFycmF5Om5vbmU7ZmlsbC1ydWxlOm5vbnplcm8iLz4mI3hhOyAgICA8cGF0aCBkPSJtIDEuOTg0Mzc1LC01Ljg1NTQ2ODggYSAwLjEyOTkwMTQ4LDAuMTI5OTAxNDggMCAwIDAgLTAuMTMwODU5NCwwLjEzMDg1OTQgdiAwLjI1IGMgMCwxLjExNDY0NDcgLTAuNzg4MzkzOSwyLjEwNzIzNzIgLTEuOTY4NzQ5OTgsMi40MjE4NzUgLTEuMTc5Nzk3OTIsMC4zMTQ0ODkxIC0yLjQ0MDMyNjEyLC0wLjE0NjQ1OCAtMy4wNzYxNzE4MiwtMS4xMDE1NjI1IGwgLTAuMTM4NjcxOSwtMC4yMDg5ODQzIGEgMC4xMjk5MDE0OCwwLjEyOTkwMTQ4IDAgMCAwIC0wLjE3OTY4NzUsLTAuMDM1MTU2IGwgLTAuNDE2MDE1NiwwLjI3NzM0MzcgYSAwLjEyOTkwMTQ4LDAuMTI5OTAxNDggMCAwIDAgLTAuMDM1MTU2LDAuMTc5Njg3NiBsIDAuMTM4NjcxOSwwLjIwODk4NDMgYyAwLjgyNzQwMTcsMS4yNDI4NDA3IDIuNDE2NTU1MywxLjgwODE2MzcgMy45MDIzNDM3MiwxLjQxMjEwOTQgQyAxLjU2NjQ0MDQsLTIuNzE2NTE5OCAyLjYxNTIzNDQsLTQuMDAwMzMxNyAyLjYxNTIzNDQsLTUuNDc0NjA5NCB2IC0wLjI1IEEgMC4xMjk5MDE0OCwwLjEyOTkwMTQ4IDAgMCAwIDIuNDg0Mzc1LC01Ljg1NTQ2ODggWiIgdHJhbnNmb3JtPSJyb3RhdGUoMTQzLjM1NTM0KSIgc3R5bGU9ImNvbG9yOiMwMDAwMDA7ZmlsbDp1cmwoI2xpbmVhckdyYWRpZW50MTA3Nyk7c3Ryb2tlLWxpbmVjYXA6c3F1YXJlO3N0cm9rZS1saW5lam9pbjpyb3VuZDtwYWludC1vcmRlcjptYXJrZXJzIGZpbGwgc3Ryb2tlO3N0cm9rZTojMDA4MDAwO3N0cm9rZS13aWR0aDowLjE7c3Ryb2tlLW1pdGVybGltaXQ6NDtzdHJva2UtZGFzaGFycmF5Om5vbmU7ZmlsbC1vcGFjaXR5OjEiIGlkPSJwYXRoMTUxOCIvPiYjeGE7ICAgIDxwYXRoIGQ9Im0gMS45ODQzNzUsLTUuOTcwNzAzMSBhIDAuMjQ2NjczMDUsMC4yNDY2NzMwNSAwIDAgMCAtMC4yNDYwOTM4LDAuMjQ2MDkzNyB2IDAuMjUgYyAwLDEuMDU5NDQgLTAuNzUxMTM2MjMsMi4wMDY0MTE1IC0xLjg4NDc2NTU4LDIuMzA4NTkzOCBDIC0xLjI3OTA1MzgsLTIuODY0MTE1OSAtMi40ODc1NzQxLC0zLjMwODIxMjggLTMuMDkzNzUsLTQuMjE4NzUgbCAtMC4xMzg2NzE5LC0wLjIwODk4NDQgYSAwLjI0NjY3MzA1LDAuMjQ2NjczMDUgMCAwIDAgLTAuMzQxNzk2OSwtMC4wNjgzNTkgTCAtMy45OTAyMzQ0LC00LjIxODc1IGEgMC4yNDY2NzMwNSwwLjI0NjY3MzA1IDAgMCAwIC0wLjA2ODM1OSwwLjM0MTc5NjkgbCAwLjEzODY3MTksMC4yMDg5ODQzIGMgMC44NTY2NTY5LDEuMjg2Nzg1IDIuNDk4NjIyLDEuODY5NDc3NSA0LjAzMTI1MDAyLDEuNDYwOTM3NiAxLjUzMzcxNzY4LC0wLjQwODgzMDUgMi42MTkxNDA2OCwtMS43Mzc5OTIgMi42MTkxNDA2OCwtMy4yNjc1NzgyIHYgLTAuMjUgQSAwLjI0NjY3MzA1LDAuMjQ2NjczMDUgMCAwIDAgMi40ODQzNzUsLTUuOTcwNzAzMSBaIiB0cmFuc2Zvcm09Im1hdHJpeCgtMC41MTg0MjgzNSwwLjM4NTY0NjIxLC0wLjM4NTY0NjIxLC0wLjUxODQyODM1LDEuNTk0Mzk0MSwxLjQ5ODg2NCkiIHN0eWxlPSJjb2xvcjojMDAwMDAwO2ZpbGw6dXJsKCNsaW5lYXJHcmFkaWVudDEwNzcpO3N0cm9rZS1saW5lY2FwOnNxdWFyZTtzdHJva2UtbGluZWpvaW46cm91bmQ7LWlua3NjYXBlLXN0cm9rZTpub25lO3BhaW50LW9yZGVyOm1hcmtlcnMgZmlsbCBzdHJva2U7ZmlsbC1vcGFjaXR5OjE7Zm9udC12YXJpYXRpb24tc2V0dGluZ3M6bm9ybWFsO29wYWNpdHk6MTt2ZWN0b3ItZWZmZWN0Om5vbmU7c3Ryb2tlOiMwMDgwMDA7c3Ryb2tlLXdpZHRoOjAuMTU0NzY2MzI7c3Ryb2tlLW1pdGVybGltaXQ6NDtzdHJva2UtZGFzaGFycmF5Om5vbmU7c3Ryb2tlLWRhc2hvZmZzZXQ6MDtzdHJva2Utb3BhY2l0eToxO3N0b3AtY29sb3I6IzAwMDAwMDtzdG9wLW9wYWNpdHk6MSIgaWQ9InBhdGgyNTMwIi8+JiN4YTsgICAgPHBhdGggZD0ibSAxLjk4NDM3NSwtNi4wNjQ0NTMxIGEgMC4zNDA2MjkzNiwwLjM0MDYyOTM2IDAgMCAwIC0wLjMzOTg0MzgsMC4zMzk4NDM3IHYgMC4yNSBjIDAsMS4wMTUwMjEzIC0wLjcxODQyMDgzLDEuOTI0NjM2NiAtMS44MTQ0NTMwOCwyLjIxNjc5NjkgQyAtMS4yNjM5OTM3LC0yLjk2NjE3NDggLTIuNDMzMDU0NCwtMy4zOTU2NTMgLTMuMDE1NjI1LC00LjI2OTUzMTIgdiAtMC4wMDE5NSBsIC0wLjEzODY3MTksLTAuMjA3MDMxMiBhIDAuMzQwNjI5MzYsMC4zNDA2MjkzNiAwIDAgMCAtMC40NzI2NTYyLC0wLjA5NTcwMyBsIC0wLjQxNjAxNTcsMC4yNzczNDM4IGEgMC4zNDA2MjkzNiwwLjM0MDYyOTM2IDAgMCAwIC0wLjA5Mzc1LDAuNDcwNzAzMSBsIDAuMTM4NjcxOSwwLjIwODk4NDQgYSAwLjM0MDYyOTM2LDAuMzQwNjI5MzYgMCAwIDAgMCwwLjAwMTk1IGMgMC44ODAxOTYxLDEuMzIyMTQzMiAyLjU2MjQ5NjYsMS45MTg1ODYyIDQuMTMyODEyNTIsMS41IDEuNTcxODIwNjgsLTAuNDE4OTg3MiAyLjY4OTQ1MzA4LC0xLjc4NTI4NjcgMi42ODk0NTMxOCwtMy4zNTkzNzUgdiAtMC4yNSBBIDAuMzQwNjI5MzYsMC4zNDA2MjkzNiAwIDAgMCAyLjQ4NDM3NSwtNi4wNjQ0NTMxIFoiIHRyYW5zZm9ybT0ibWF0cml4KC0wLjMwMTc4MzAxLDAuMjI0NDg5MDIsLTAuMjI0NDg5MDIsLTAuMzAxNzgzMDEsMy4wMDc2MDUyLDIuNzg0OTc1OSkiIHN0eWxlPSJjb2xvcjojMDAwMDAwO2ZpbGw6dXJsKCNsaW5lYXJHcmFkaWVudDEwNzcpO3N0cm9rZS1saW5lY2FwOnNxdWFyZTtzdHJva2UtbGluZWpvaW46cm91bmQ7LWlua3NjYXBlLXN0cm9rZTpub25lO3BhaW50LW9yZGVyOm1hcmtlcnMgZmlsbCBzdHJva2U7Zm9udC12YXJpYXRpb24tc2V0dGluZ3M6bm9ybWFsO29wYWNpdHk6MTt2ZWN0b3ItZWZmZWN0Om5vbmU7ZmlsbC1vcGFjaXR5OjE7c3Ryb2tlOiMwMDgwMDA7c3Ryb2tlLXdpZHRoOjAuMjY1ODcwNjc7c3Ryb2tlLW1pdGVybGltaXQ6NDtzdHJva2UtZGFzaGFycmF5Om5vbmU7c3Ryb2tlLWRhc2hvZmZzZXQ6MDtzdHJva2Utb3BhY2l0eToxO3N0b3AtY29sb3I6IzAwMDAwMDtzdG9wLW9wYWNpdHk6MSIgaWQ9InBhdGgyNTMyIi8+JiN4YTsgIDwvZz4mI3hhOzwvc3ZnPg==;" vertex="1" parent="1">
          <mxGeometry x="440" y="374.46999999999997" width="62" height="62" as="geometry" />
        </mxCell>
        <mxCell id="CtstYYITDIyHxA0FwCKV-25" value="" style="image;sketch=0;aspect=fixed;html=1;points=[];align=center;fontSize=12;image=img/lib/mscae/CustomDomain.svg;" vertex="1" parent="1">
          <mxGeometry x="66" y="494" width="50" height="42" as="geometry" />
        </mxCell>
      </root>
    </mxGraphModel>
  </diagram>
</mxfile>
